<?xml version="1.0" encoding="utf-8"?>
<!-- Generator: Adobe Illustrator 18.1.1, SVG Export Plug-In . SVG Version: 6.00 Build 0)  -->
<svg version="1.1" id="Layer_1" xmlns="http://www.w3.org/2000/svg" xmlns:xlink="http://www.w3.org/1999/xlink" x="0px" y="0px"
	 viewBox="0 0 500 500" enable-background="new 0 0 500 500" xml:space="preserve">
<g>
	<polygon fill="#EFEEEE" points="250,490.4 363.8,437.4 415.7,244.5 306.3,206.9 193.7,206.9 84.3,244.5 136.2,437.4 	"/>
	<polygon fill="#DEDEDD" points="299,167.2 201,167.2 193.7,206.9 250,236.4 306.3,206.9 	"/>
	<path fill="#EFEEEE" d="M325.4,96.8c-8,54-33.7,96.8-75.4,96.8s-68.1-44.1-75.4-96.8C167.3,43.7,208.4,0,250,0
		S333.2,43.8,325.4,96.8z"/>
	<polygon fill="#FFFFFF" points="255.7,233.4 277.2,259.3 316.3,210.3 303.9,193.7 	"/>
	<polygon fill="#FFFFFF" points="244.3,233.4 222.8,259.3 183.7,210.3 196.1,193.7 	"/>
	<path fill="#3B89C9" d="M250,490.4c-66.3,0-113.8-53-113.8-53L84.3,244.5l99.4-34.1l66.4,123.3l66.2-123.3l99.4,34.1l-51.9,192.9
		C363.8,437.4,316.3,490.4,250,490.4z"/>
	<polygon fill="#9CCBEE" points="235.6,306.9 244.3,256.6 235.6,243.9 244.3,233.4 250,236.4 255.7,233.4 264.4,243.9 255.7,256.6 
		264.4,306.9 250.1,333.7 	"/>
</g>
</svg>
