<?xml version="1.0" encoding="utf-8"?>
<!-- Generator: Adobe Illustrator 18.1.1, SVG Export Plug-In . SVG Version: 6.00 Build 0)  -->
<svg version="1.1" id="Layer_1" xmlns="http://www.w3.org/2000/svg" xmlns:xlink="http://www.w3.org/1999/xlink" x="0px" y="0px"
	 viewBox="0 0 500 500" enable-background="new 0 0 500 500" xml:space="preserve">
<g>
	<path fill="#676767" d="M250,424.5L250,424.5c-25.7,0-46.8-21.1-46.8-46.8v-13.4c0-25.7,21.1-46.8,46.8-46.8h0
		c25.7,0,46.8,21.1,46.8,46.8v13.4C296.8,403.4,275.7,424.5,250,424.5z"/>
	<path fill="#3B89C9" d="M295,385.4h-90c-9.6,0-17.4-7.8-17.4-17.4v0c0-9.6,7.8-17.4,17.4-17.4h90c9.6,0,17.4,7.8,17.4,17.4v0
		C312.4,377.5,304.6,385.4,295,385.4z"/>
	<g id="XMLID_10_">
		<g>
			<path fill="#FFFFFF" d="M374.4,161.3l-123.5,98.4c-0.3,0-0.6,0-0.9,0c-71.7,0-129.9-58.1-129.9-129.9S178.3,0,250,0
				c71.7,0,129.9,58.1,129.9,129.9c0,25.8-7.5,49.8-20.5,70C365.9,186.5,371.3,173.6,374.4,161.3z"/>
			<path fill="#FFFFFF" d="M250.9,259.7l123.5-98.4c-3.1,12.3-8.5,25.2-15,38.5c0,0,0,0,0,0C336.5,235.6,296.5,259.4,250.9,259.7z"
				/>
			<path fill="#FFFFFF" d="M359.4,199.9c-16.7,34.5-40,72.2-47,110.4H250h-62.5l63.4-50.5C296.5,259.4,336.5,235.6,359.4,199.9z"/>
		</g>
	</g>
	<g id="XMLID_9_">
		<g>
			<path fill="#FFFFFF" d="M125.6,161.3l123.5,98.4c0.3,0,0.6,0,0.9,0c71.7,0,129.9-58.1,129.9-129.9S321.7,0,250,0
				c-71.7,0-129.9,58.1-129.9,129.9c0,25.8,7.5,49.8,20.5,70C134.1,186.5,128.7,173.6,125.6,161.3z"/>
			<path fill="#FFFFFF" d="M249.1,259.7l-123.5-98.4c3.1,12.3,8.5,25.2,15,38.5c0,0,0,0,0,0C163.5,235.6,203.5,259.4,249.1,259.7z"
				/>
			<path fill="#FFFFFF" d="M140.6,199.9c16.7,34.5,40,72.2,47,110.4H250h62.5l-63.4-50.5C203.5,259.4,163.5,235.6,140.6,199.9z"/>
		</g>
	</g>
	<polygon fill="#F8A897" points="244.4,329.6 231.7,330.8 206.2,141.9 218.9,140.8 	"/>
	<polygon fill="#F8A897" points="255.5,329.6 268.3,330.8 293.8,141.9 281,140.8 	"/>
	<rect x="187.5" y="310.2" fill="#3B89C9" width="124.9" height="55.8"/>
</g>
</svg>
