<?xml version="1.0" encoding="utf-8"?>
<!-- Generator: Adobe Illustrator 18.1.1, SVG Export Plug-In . SVG Version: 6.00 Build 0)  -->
<svg version="1.1" id="Layer_1" xmlns="http://www.w3.org/2000/svg" xmlns:xlink="http://www.w3.org/1999/xlink" x="0px" y="0px"
	 viewBox="0 0 500 375" enable-background="new 0 0 500 375" xml:space="preserve">
<g>
	<polyline fill="#EFEEEE" points="255.1,375 83.1,362.1 109.9,3.3 429,27.2 403,374.6 	"/>
	<rect x="96" y="14.8" fill="#FFFFFF" width="320" height="359.8"/>
	<rect x="117.1" y="35.5" fill="#17507D" width="81.1" height="3"/>
	<rect x="117.1" y="67" fill="#CDCCCC" width="125" height="3"/>
	<rect x="117.1" y="82.1" fill="#CDCCCC" width="125" height="3"/>
	<rect x="117.1" y="97.2" fill="#CDCCCC" width="125" height="3"/>
	<rect x="117.1" y="112.4" fill="#CDCCCC" width="125" height="3"/>
	<rect x="117.1" y="127.5" fill="#CDCCCC" width="125" height="3"/>
	<rect x="117.1" y="51.9" fill="#CDCCCC" width="125" height="3"/>
	<rect x="117.1" y="142.6" fill="#CDCCCC" width="125" height="3"/>
	<rect x="117.1" y="160.1" fill="#CDCCCC" width="125" height="3"/>
	<rect x="117.1" y="177.5" fill="#CDCCCC" width="125" height="3"/>
	<rect x="117.1" y="196.1" fill="#CDCCCC" width="276.1" height="3"/>
	<rect x="117.1" y="212.9" fill="#CDCCCC" width="190.2" height="3"/>
	<rect x="266.4" y="248.2" fill="#D65233" width="81.1" height="3"/>
	<rect x="266.4" y="279.8" fill="#CDCCCC" width="125" height="3"/>
	<rect x="266.4" y="294.9" fill="#CDCCCC" width="125" height="3"/>
	<rect x="266.4" y="310" fill="#CDCCCC" width="125" height="3"/>
	<rect x="266.4" y="325.1" fill="#CDCCCC" width="125" height="3"/>
	<rect x="266.4" y="340.2" fill="#CDCCCC" width="125" height="3"/>
	<rect x="266.4" y="264.7" fill="#CDCCCC" width="125" height="3"/>
	<rect x="209.6" y="264.7" fill="#D65233" width="9.5" height="78.6"/>
	<rect x="186.6" y="293.6" fill="#D65233" width="9.5" height="49.6"/>
	<rect x="163.6" y="281.3" fill="#D65233" width="9.5" height="61.9"/>
	<rect x="140.7" y="272.9" fill="#D65233" width="9.5" height="70.3"/>
	<rect x="117.7" y="307.2" fill="#D65233" width="9.5" height="36.1"/>
	<rect x="232.5" y="249.7" fill="#D65233" width="9.5" height="93.5"/>
	<g>
		<g>
			<g id="XMLID_4_">
				<g>
					<path fill="#17507D" d="M393.2,98.6c0,6.8-1.1,13.4-3.1,19.5h0l-20-6.5c1.3-4.1,2-8.5,2-13c0-23.2-18.8-42.1-42.1-42.1
						c-9.3,0-17.8,3-24.7,8l-12.3-17l0,0c10.4-7.6,23.2-12,37.1-12C365,35.5,393.2,63.7,393.2,98.6z"/>
					<path fill="#F8A897" d="M390.1,118.1L390.1,118.1c-8.2,25.3-31.9,43.6-60,43.6c-13.9,0-26.7-4.5-37.1-12.1l12.4-17
						c6.9,5,15.5,8,24.7,8c18.7,0,34.5-12.2,40-29.1L390.1,118.1z"/>
					<path fill="#9CCBEE" d="M305.4,132.6l-12.4,17c-15.8-11.4-26-30-26-51h21C288,112.6,294.9,125,305.4,132.6z"/>
					<path fill="#D65233" d="M293,47.5l12.3,17c-10.5,7.6-17.3,20-17.3,34h-21C267,77.6,277.2,59,293,47.5L293,47.5z"/>
				</g>
			</g>
		</g>
	</g>
</g>
</svg>
