<?xml version="1.0" encoding="utf-8"?>
<!-- Generator: Adobe Illustrator 18.1.1, SVG Export Plug-In . SVG Version: 6.00 Build 0)  -->
<svg version="1.1" id="Layer_1" xmlns="http://www.w3.org/2000/svg" xmlns:xlink="http://www.w3.org/1999/xlink" x="0px" y="0px"
	 viewBox="0 0 500 375" enable-background="new 0 0 500 375" xml:space="preserve">
<g>
	<g>
		<g>
			<path fill="#17507D" d="M437,21.4c0-3.1-2.6-5.7-5.7-5.7H68.7c-3.1,0-5.7,2.6-5.7,5.7v264.9v5.7h374"/>
			<g>
				<polygon fill="#3B89C9" points="260.7,364.9 23.4,364.9 63,291.9 260.7,291.9 437,291.9 476.6,364.9 				"/>
				<polyline fill="#16507D" points="269.9,349.2 54.1,349.2 77.7,306.1 269.9,306.1 260.3,306.1 423.4,306.1 445.9,349.2 
					260.3,349.2 				"/>
			</g>
			<rect x="73.1" y="26.5" fill="#FFFFFF" width="353.4" height="252.2"/>
			<rect x="132.7" y="84.8" fill="#9CCBEE" width="22.7" height="4"/>
			<rect x="132.7" y="104.7" fill="#D65233" width="155.2" height="4"/>
			<rect x="132.5" y="124.6" fill="#D65233" width="43" height="4"/>
			<rect x="132.5" y="144.6" fill="#F8A897" width="17.7" height="4"/>
			<rect x="155.4" y="164.5" fill="#D65233" width="51.1" height="4"/>
			<rect x="108.6" y="64.9" fill="#9CCBEE" width="52.1" height="4"/>
			<rect x="155.4" y="184.4" fill="#D65233" width="86.4" height="4"/>
			<rect x="109" y="207.6" fill="#D65233" width="28.9" height="4"/>
			<rect x="169.2" y="64.9" fill="#F8A897" width="52.1" height="4"/>
			<rect x="164.1" y="84.8" fill="#D65233" width="22.7" height="4"/>
			<rect x="230.5" y="64.9" fill="#D65233" width="22.7" height="4"/>
			<rect x="183.9" y="124.6" fill="#9CCBEE" width="29.7" height="4"/>
			<rect x="223" y="124.6" fill="#F8A897" width="78.6" height="4"/>
			<rect x="160.8" y="144.6" fill="#D65233" width="43" height="4"/>
			<rect x="215.7" y="164.5" fill="#9CCBEE" width="21.8" height="4"/>
			<rect x="247.4" y="164.5" fill="#F8A897" width="46.5" height="4"/>
			<rect x="148.2" y="207.6" fill="#F8A897" width="90.5" height="4"/>
			<rect x="109" y="230.5" fill="#D65233" width="34.7" height="4"/>
			<rect x="154.6" y="230.5" fill="#F8A897" width="101" height="4"/>
		</g>
		<path fill="#17507D" d="M476.6,370L476.6,370c0,2.8-2.3,5-5,5h-443c-2.8,0-5-2.3-5-5v0c0-2.8,0-5,0-5h453.1
			C476.6,364.9,476.6,367.2,476.6,370L476.6,370"/>
	</g>
	<g>
		<line fill="none" stroke="#3B89C9" stroke-width="6" stroke-miterlimit="10" x1="422.2" y1="297.3" x2="454.3" y2="357.8"/>
		<line fill="none" stroke="#3B89C9" stroke-width="6" stroke-miterlimit="10" x1="402" y1="297.5" x2="430.3" y2="357.6"/>
		<line fill="none" stroke="#3B89C9" stroke-width="6" stroke-miterlimit="10" x1="381.7" y1="297.6" x2="406.4" y2="357.4"/>
		<line fill="none" stroke="#3B89C9" stroke-width="6" stroke-miterlimit="10" x1="361.5" y1="297.7" x2="382.5" y2="357.2"/>
		<line fill="none" stroke="#3B89C9" stroke-width="6" stroke-miterlimit="10" x1="341.2" y1="297.8" x2="358.6" y2="357"/>
		<line fill="none" stroke="#3B89C9" stroke-width="6" stroke-miterlimit="10" x1="320.9" y1="297.9" x2="334.6" y2="356.8"/>
		<line fill="none" stroke="#3B89C9" stroke-width="6" stroke-miterlimit="10" x1="300.7" y1="298" x2="310.7" y2="356.6"/>
		<line fill="none" stroke="#3B89C9" stroke-width="6" stroke-miterlimit="10" x1="280.4" y1="298.2" x2="286.8" y2="356.4"/>
		<line fill="none" stroke="#3B89C9" stroke-width="6" stroke-miterlimit="10" x1="260.2" y1="298.3" x2="262.9" y2="356.2"/>
		<line fill="none" stroke="#3B89C9" stroke-width="6" stroke-miterlimit="10" x1="239.9" y1="298.4" x2="238.9" y2="356"/>
		<line fill="none" stroke="#3B89C9" stroke-width="6" stroke-miterlimit="10" x1="219.6" y1="298.5" x2="215" y2="355.8"/>
		<line fill="none" stroke="#3B89C9" stroke-width="6" stroke-miterlimit="10" x1="199.4" y1="298.6" x2="191.1" y2="355.6"/>
		<line fill="none" stroke="#3B89C9" stroke-width="6" stroke-miterlimit="10" x1="179.1" y1="298.7" x2="167.2" y2="355.4"/>
		<line fill="none" stroke="#3B89C9" stroke-width="6" stroke-miterlimit="10" x1="158.9" y1="298.9" x2="143.3" y2="355.2"/>
		<line fill="none" stroke="#3B89C9" stroke-width="6" stroke-miterlimit="10" x1="138.6" y1="299" x2="119.3" y2="355"/>
		<line fill="none" stroke="#3B89C9" stroke-width="6" stroke-miterlimit="10" x1="118.3" y1="299.1" x2="95.4" y2="354.7"/>
		<line fill="none" stroke="#3B89C9" stroke-width="6" stroke-miterlimit="10" x1="98.1" y1="299.2" x2="71.5" y2="354.5"/>
		<line fill="none" stroke="#3B89C9" stroke-width="6" stroke-miterlimit="10" x1="77.8" y1="299.3" x2="47.6" y2="354.3"/>
	</g>
	<g>
		<rect x="63" y="300.1" fill="#3B89C9" width="374" height="6"/>
		<rect x="60" y="316.5" fill="#3B89C9" width="381.5" height="6"/>
		<rect x="57.1" y="332.9" fill="#3B89C9" width="388.9" height="6"/>
		<rect x="54.1" y="349.3" fill="#3B89C9" width="396.4" height="6"/>
	</g>
</g>
</svg>
