<?xml version="1.0" encoding="utf-8"?>
<!-- Generator: Adobe Illustrator 18.1.1, SVG Export Plug-In . SVG Version: 6.00 Build 0)  -->
<svg version="1.1" id="Layer_1" xmlns="http://www.w3.org/2000/svg" xmlns:xlink="http://www.w3.org/1999/xlink" x="0px" y="0px"
	 viewBox="-209 142 100 100" enable-background="new -209 142 100 100" xml:space="preserve">
<rect x="-209" y="142" fill="#3B89C9" width="100" height="100"/>
<g>
	<path fill="#EAF5FE" d="M-168.5,194.2h1.6c0.4,0,0.7-0.3,0.8-0.5l4.1-9.6v-10.3h6v10.3l4.1,9.6c0.1,0.3,0.4,0.5,0.8,0.5h1.6
		c0.8,0,1.1-0.7,0.8-1.5l-4.1-9.5l0-9.5h0.1c0.8,0,1.4-0.6,1.4-1.4v-0.7c0-0.8-0.6-1.4-1.4-1.4h-12.6c-0.8,0-1.4,0.6-1.4,1.4v0.7
		c0,0.8,0.6,1.4,1.4,1.4h0.1l0,9.5l-4.1,9.5C-169.6,193.5-169.3,194.2-168.5,194.2z"/>
	<path fill="#EAF5FE" d="M-141.3,209.1l-4.1-8.9c-0.8-1.7-2.1-3.4-5-3.4h-17.2c-3.1,0-4.2,1.7-5,3.4l-4.1,8.9
		c-0.8,1.7-1.3,4.6,2.6,4.6h30.2C-140,213.8-140.5,210.8-141.3,209.1z M-148.2,209.6h-7.1h-5.7h-8.8c-2.9,0-2.4-1.9-1.9-3l2.5-5.7
		c0.5-1.1,1.1-2.2,3.2-2.2h14c2,0,2.7,1.1,3.2,2.2l2.5,5.7C-145.8,207.7-145.4,209.6-148.2,209.6z"/>
</g>
</svg>
