<?xml version="1.0" encoding="utf-8"?>
<!-- Generator: Adobe Illustrator 18.1.1, SVG Export Plug-In . SVG Version: 6.00 Build 0)  -->
<svg version="1.1" id="Layer_1" xmlns="http://www.w3.org/2000/svg" xmlns:xlink="http://www.w3.org/1999/xlink" x="0px" y="0px"
	 viewBox="0 0 150.4 133.6" enable-background="new 0 0 150.4 133.6" xml:space="preserve">
<g>
	<path fill="#9CCBEE" d="M99.6,53c0,23.7-19.2,43-43,43s-43-19.2-43-43c0-23.7,19.2-43,43-43S99.6,29.3,99.6,53z"/>
	<path fill="#9CCBEE" d="M136.7,53c0,23.7-19.2,43-43,43s-43-19.2-43-43c0-23.7,19.2-43,43-43S136.7,29.3,136.7,53z"/>
	<path fill="#3B89C9" d="M75.9,14.9C61.1,21.7,50.8,36.6,50.8,54c0,16.8,9.7,31.4,23.8,38.4c14.8-6.8,25.1-21.7,25.1-39.1
		C99.6,36.5,90,22,75.9,14.9z"/>
	<path fill="#9CCBEE" d="M119.2,86.7c0,23.7-19.2,43-43,43s-43-19.2-43-43c0-23.7,19.2-43,43-43S119.2,62.9,119.2,86.7z"/>
	<path fill="#3B89C9" d="M33.1,86.7c0,0.8,0,1.6,0.1,2.3c6.8,4.4,14.8,7,23.5,7c23.7,0,43-19.2,43-43c0-0.8,0-1.6-0.1-2.3
		c-6.8-4.4-14.8-7-23.5-7C52.3,43.7,33.1,62.9,33.1,86.7z"/>
	<path fill="#3B89C9" d="M76.1,43.7c-9.5,0-18.2,3.1-25.3,8.2c0,0.4,0,0.7,0,1.1c0,23.7,19.2,43,43,43c9.5,0,18.2-3.1,25.3-8.2
		c0-0.4,0-0.7,0-1.1C119,62.9,99.8,43.7,76.1,43.7z"/>
	<path fill="#17507D" d="M99.6,53c0-0.8,0-1.6-0.1-2.3c-6.8-4.4-14.8-7-23.5-7c-9.5,0-18.2,3.1-25.3,8.2c0,0.4,0,0.7,0,1.1
		c0,17.1,10,31.9,24.4,38.8C89.7,84.9,99.6,70.1,99.6,53z"/>
</g>
</svg>
