<?xml version="1.0" encoding="utf-8"?>
<!-- Generator: Adobe Illustrator 18.1.1, SVG Export Plug-In . SVG Version: 6.00 Build 0)  -->
<svg version="1.1" id="Layer_1" xmlns="http://www.w3.org/2000/svg" xmlns:xlink="http://www.w3.org/1999/xlink" x="0px" y="0px"
	 viewBox="0 0 100 100" enable-background="new 0 0 100 100" xml:space="preserve">
<path fill="#9CCBEE" d="M50,0.3C22.6,0.3,0.3,22.6,0.3,50S22.6,99.7,50,99.7c27.4,0,49.7-22.2,49.7-49.7S77.4,0.3,50,0.3z
	 M70.1,73.7c-3.6,3.6-17.2,0.2-30.6-13.2c-13.4-13.4-16.8-27-13.2-30.6c3.2-3.2,7-8.7,12.8-1.5c5.8,7.2,2.9,9.2-0.3,12.4
	c-2.3,2.3,2.5,8,7.4,13c5,5,10.7,9.7,13,7.4c3.3-3.3,5.3-6.1,12.4-0.3C78.7,66.7,73.2,70.6,70.1,73.7z"/>
</svg>
