<?xml version="1.0" encoding="utf-8"?>
<!-- Generator: Adobe Illustrator 18.1.1, SVG Export Plug-In . SVG Version: 6.00 Build 0)  -->
<svg version="1.1" id="Layer_1" xmlns="http://www.w3.org/2000/svg" xmlns:xlink="http://www.w3.org/1999/xlink" x="0px" y="0px"
	 viewBox="0 0 100 100" enable-background="new 0 0 100 100" xml:space="preserve">
<path fill="#9CCBEE" d="M56.9,30.7c-4.3,1.6-7.1,5.6-6.7,10.1l0.1,1.7l-1.7-0.2c-6.3-0.8-11.8-3.5-16.5-8.1l-2.3-2.3l-0.6,1.7
	c-1.2,3.7-0.4,7.7,2.1,10.4c1.4,1.5,1.1,1.7-1.3,0.8c-0.8-0.3-1.6-0.5-1.6-0.4c-0.2,0.2,0.6,3.4,1.2,4.7c0.9,1.7,2.7,3.5,4.7,4.5
	l1.7,0.8l-2,0c-1.9,0-2,0-1.8,0.8c0.7,2.3,3.4,4.7,6.5,5.7l2.1,0.7L39,62.7c-2.8,1.6-6,2.5-9.3,2.6c-1.6,0-2.8,0.2-2.8,0.3
	c0,0.3,4.2,2.3,6.7,3.1c7.4,2.3,16.1,1.3,22.7-2.6c4.7-2.8,9.3-8.3,11.5-13.6c1.2-2.8,2.4-8,2.4-10.5c0-1.6,0.1-1.8,2-3.7
	c1.1-1.1,2.2-2.3,2.4-2.7c0.3-0.7,0.3-0.7-1.5-0.1c-2.9,1-3.4,0.9-1.9-0.7c1.1-1.1,2.4-3.1,2.4-3.7c0-0.1-0.5,0.1-1.1,0.4
	c-0.6,0.3-2,0.9-3,1.2l-1.9,0.6l-1.7-1.2c-0.9-0.6-2.2-1.3-2.9-1.5C61.2,30,58.5,30.1,56.9,30.7z M50,99.5
	C22.7,99.5,0.5,77.3,0.5,50C0.5,22.7,22.7,0.5,50,0.5S99.5,22.7,99.5,50C99.5,77.3,77.3,99.5,50,99.5z"/>
</svg>
