<?xml version="1.0" encoding="utf-8"?>
<!-- Generator: Adobe Illustrator 18.1.1, SVG Export Plug-In . SVG Version: 6.00 Build 0)  -->
<svg version="1.1" id="Layer_1" xmlns="http://www.w3.org/2000/svg" xmlns:xlink="http://www.w3.org/1999/xlink" x="0px" y="0px"
	 viewBox="0 0 100 100" enable-background="new 0 0 100 100" xml:space="preserve">
<path fill="#9CCBEE" d="M50,0.5c-27.6,0-50,22.4-50,50c0,27.6,22.4,50,50,50c27.6,0,50-22.4,50-50C100,22.9,77.6,0.5,50,0.5z
	 M69.5,46.2c0,0.2-0.1,0.5-0.2,0.7c0,0.1,0,0.2-0.1,0.2h0C66.4,59.1,50,81.5,50,81.5S33.6,59.1,30.7,47.2h0c0-0.1,0-0.2-0.1-0.2
	c-0.1-0.3-0.1-0.5-0.2-0.7c-0.2-1.2-0.4-2.5-0.4-3.8c0-11,8.9-19.9,19.9-19.9s19.9,8.9,19.9,19.9C69.9,43.7,69.7,44.9,69.5,46.2z"/>
<circle fill="#9CCBEE" cx="50" cy="41.9" r="9.8"/>
</svg>
