<?xml version="1.0" encoding="utf-8"?>
<!-- Generator: Adobe Illustrator 18.1.1, SVG Export Plug-In . SVG Version: 6.00 Build 0)  -->
<svg version="1.1" id="Layer_1" xmlns="http://www.w3.org/2000/svg" xmlns:xlink="http://www.w3.org/1999/xlink" x="0px" y="0px"
	 viewBox="0 0 900 300" enable-background="new 0 0 900 300" xml:space="preserve">
<g>
	<path fill="#444444" d="M248.4,207.2h-21.2v-95.7h-21.9V92.7h65.1v18.7h-21.9V207.2z"/>
	<path fill="#444444" d="M334.1,207.2h-51.6V92.7h51.6v18.4h-30.3v27.2h28.1v18.5h-28.1v31.7h30.3V207.2z"/>
	<path fill="#444444" d="M405,207.2l-6.6-28.9h-29.8l-6.6,28.9h-21.3L369,92.3h28.9l28.4,114.9H405z M394.4,159.4l-6.1-26.6
		c-0.4-1.6-1.2-5.7-2.5-12.2c-1.3-6.5-2-10.8-2.3-13c-0.7,4.5-1.5,9.4-2.6,14.8c-1,5.4-3.8,17.7-8.1,37H394.4z"/>
	<path fill="#444444" d="M477.3,207.2l-21.8-97.5h-0.9c1,7.5,1.5,14.4,1.5,20.7v76.8h-19.7V92.7h32.7l19.6,90h0.6l19.4-90H542v114.5
		h-20.2v-77.6c0-6.4,0.4-13,1.1-19.7h-0.6l-21.7,97.3H477.3z"/>
	<path fill="#3B89C9" d="M566.2,207.2l32.1-95.4h-39.9V92.9h61.4v14.4l-31.5,99.9H566.2z"/>
	<path fill="#3B89C9" d="M632.1,158.6c0-23.3,3.6-40.4,10.9-51.2c7.3-10.8,18.3-16.2,33.2-16.2c2.3,0,4.7,0.1,7,0.4
		c2.3,0.3,4.1,0.6,5.3,0.9v17.6c-3.6-0.8-7.2-1.3-10.6-1.3c-5.9,0-10.8,1.3-14.6,3.9c-3.8,2.6-6.7,6.5-8.7,11.7
		c-2,5.2-3.2,12.5-3.6,21.9h0.9c1.8-4.3,4.3-7.6,7.5-9.8c3.2-2.2,6.9-3.3,11-3.3c7.7,0,13.6,3.1,17.9,9.4c4.3,6.2,6.4,15.1,6.4,26.7
		c0,12.1-2.8,21.7-8.5,28.8c-5.6,7.1-13.3,10.6-22.9,10.6c-10.2,0-18-4.2-23.3-12.7C634.7,187.6,632.1,175.1,632.1,158.6z
		 M663.5,190.8c3.1,0,5.6-1.7,7.6-5.2c1.9-3.4,2.9-8.8,2.9-16.1c0-5.9-0.8-10.6-2.5-14c-1.7-3.4-4.3-5.1-7.7-5.1
		c-3.1,0-5.6,1.6-7.5,4.8c-1.9,3.2-2.9,7.2-2.9,12.1c0,7.6,0.9,13.5,2.7,17.5C657.7,188.8,660.3,190.8,663.5,190.8z"/>
</g>
</svg>
