<?xml version="1.0" encoding="utf-8"?>
<!-- Generator: Adobe Illustrator 19.0.0, SVG Export Plug-In . SVG Version: 6.00 Build 0)  -->
<svg version="1.1" id="Layer_1" xmlns="http://www.w3.org/2000/svg" xmlns:xlink="http://www.w3.org/1999/xlink" x="0px" y="0px"
	 viewBox="416 -744 1792 2048" style="enable-background:new 416 -744 1792 2048;" xml:space="preserve">
<style type="text/css">
	.st0{fill:#FFFFFF;}
</style>
<path class="st0" d="M2208,94v794c0,44-15.7,81.7-47,113s-69,47-113,47H576c-44,0-81.7-15.7-113-47s-47-69-47-113V94
	c29.3,32.7,63,61.7,101,87c241.3,164,407,279,497,345c38,28,68.8,49.8,92.5,65.5s55.2,31.7,94.5,48s76,24.5,110,24.5h1h1
	c34,0,70.7-8.2,110-24.5s70.8-32.3,94.5-48S1572,554,1610,526c113.3-82,279.3-197,498-345C2146,155,2179.3,126,2208,94z M2208-200
	c0,52.7-16.3,103-49,151s-73.3,89-122,123c-250.7,174-406.7,282.3-468,325c-6.7,4.7-20.8,14.8-42.5,30.5s-39.7,28.3-54,38
	s-31.7,20.5-52,32.5s-39.5,21-57.5,27s-34.7,9-50,9h-1h-1c-15.3,0-32-3-50-9s-37.2-15-57.5-27s-37.7-22.8-52-32.5s-32.3-22.3-54-38
	s-35.8-25.8-42.5-30.5c-60.7-42.7-148-103.5-262-182.5S610.7,90,588,74C546.7,46,507.7,7.5,471-41.5S416-136,416-178
	c0-52,13.8-95.3,41.5-130s67.2-52,118.5-52h1472c43.3,0,80.8,15.7,112.5,47S2208-244,2208-200z"/>
</svg>
