<?xml version="1.0" encoding="utf-8"?>
<!-- Generator: Adobe Illustrator 18.1.1, SVG Export Plug-In . SVG Version: 6.00 Build 0)  -->
<svg version="1.1" id="Layer_1" xmlns="http://www.w3.org/2000/svg" xmlns:xlink="http://www.w3.org/1999/xlink" x="0px" y="0px"
	 viewBox="0 0 500 500" enable-background="new 0 0 500 500" xml:space="preserve">
<g>
	<circle fill="#FFFFFF" cx="250" cy="198.9" r="198.9"/>
	<path fill="#3B89C9" d="M448.9,199.7c0,109.9-89.1,198.9-198.9,198.9S51.1,309.6,51.1,199.7S140.1,0.8,250,0.8
		S448.9,89.8,448.9,199.7z M250,21.4c-98.5,0-178.3,79.8-178.3,178.3S151.5,378,250,378s178.3-79.8,178.3-178.3S348.5,21.4,250,21.4
		z"/>
	<rect x="239.5" y="42.8" fill="#CDCCCC" width="20.9" height="40.3"/>
	<rect x="239.5" y="316.4" fill="#CDCCCC" width="20.9" height="40.3"/>
	<rect x="93.1" y="189.3" fill="#CDCCCC" width="40.3" height="20.9"/>
	<rect x="366.7" y="189.3" fill="#CDCCCC" width="40.3" height="20.9"/>
	
		<rect x="258.3" y="68.1" transform="matrix(0.9807 0.1953 -0.1953 0.9807 31.8346 -49.8584)" fill="#D65233" width="20.9" height="136.8"/>
	<circle fill="#D65233" cx="255.4" cy="203.6" r="10.5"/>
	
		<rect x="288.6" y="167.8" transform="matrix(-0.1953 0.9807 -0.9807 -0.1953 565.6682 -39.5897)" fill="#D65233" width="20.9" height="89"/>
</g>
</svg>
