<?xml version="1.0" encoding="utf-8"?>
<!-- Generator: Adobe Illustrator 18.1.1, SVG Export Plug-In . SVG Version: 6.00 Build 0)  -->
<svg version="1.1" id="Layer_1" xmlns="http://www.w3.org/2000/svg" xmlns:xlink="http://www.w3.org/1999/xlink" x="0px" y="0px"
	 viewBox="0 0 500 500" enable-background="new 0 0 500 500" xml:space="preserve">
<g>
	<path fill="#3A88C8" d="M74.1,349.9h168.3v-42.2c-3.1,0.7-6.3,1.1-9.6,1.1c-23.7,0-43-19.3-43-43c0-23.7,19.3-43,43-43
		c3.3,0,6.5,0.4,9.6,1.1v-42.2H74.1V349.9z"/>
	<circle fill="#3A88C8" cx="158.3" cy="157.8" r="29.9"/>
	<circle fill="#3A88C8" cx="266.2" cy="84.1" r="29.9"/>
	<path fill="#13517E" d="M425.9,0L257.6,0v42.2c3.1-0.7,6.3-1.1,9.6-1.1c23.8,0,43,19.3,43,43c0,23.7-19.3,43-43,43
		c-3.3,0-6.5-0.4-9.6-1.1v42.2h168.3V0z"/>
	<circle fill="#13517E" cx="341.7" cy="192.1" r="29.9"/>
	<path fill="#3A88C8" d="M425.9,349.9V181.6h-42.2c0.7,3.1,1.1,6.3,1.1,9.6c0,23.7-19.3,43-43,43c-23.7,0-43-19.3-43-43
		c0-3.3,0.4-6.5,1.1-9.6h-42.2v168.3H425.9z"/>
	<circle fill="#3A88C8" cx="233.8" cy="265.7" r="29.9"/>
	<path fill="#3A88C8" d="M74.1,0v0.3v50v117.9h42.2c-0.7-3.1-1.1-6.3-1.1-9.6c0-23.7,19.3-43,43-43c23.8,0,43,19.3,43,43
		c0,3.3-0.4,6.5-1.1,9.6h42.2V0H74.1z"/>
</g>
</svg>
