<?xml version="1.0" encoding="utf-8"?>
<!-- Generator: Adobe Illustrator 18.1.1, SVG Export Plug-In . SVG Version: 6.00 Build 0)  -->
<svg version="1.1" id="Layer_1" xmlns="http://www.w3.org/2000/svg" xmlns:xlink="http://www.w3.org/1999/xlink" x="0px" y="0px"
	 viewBox="0 0 500 500" enable-background="new 0 0 500 500" xml:space="preserve">
<g>
	<path fill="#3B89C9" d="M398.5,165.6c-3.6-21.9-11.8-42.2-23.8-59.8l25.8-35.1l-14.3-14.3l-14.3-14.3l-34.6,25.4
		C319.6,54.8,299,45.9,276.6,42l-6.4-42H250h-20.2l-6.4,42c-22.3,4-42.9,12.9-60.7,25.6l-34.6-25.4l-14.3,14.3L99.5,70.7l25.8,35.1
		c-11.9,17.6-20.2,37.9-23.8,59.8l-44.1,6.7v20.2v20.2l45,6.9c4.2,21,12.8,40.4,24.7,57.2l-27.6,37.6l14.3,14.3l14.3,14.3l38.1-28
		c16.7,11.2,35.8,19.1,56.4,22.9v0.1l7.2,47.1H250h20.2l7.2-47.1V338c20.6-3.8,39.6-11.7,56.4-22.9l38.1,28l14.3-14.3l14.3-14.3
		l-27.6-37.6c11.9-16.8,20.5-36.2,24.7-57.2l45-6.9v-20.2v-20.2L398.5,165.6z M250,295.4c-56.8,0-102.8-46-102.8-102.8
		S193.2,89.8,250,89.8c56.8,0,102.8,46,102.8,102.8S306.8,295.4,250,295.4z"/>
	<path fill="#17507D" d="M250,73.3c-65.9,0-119.3,53.4-119.3,119.3S184.1,311.8,250,311.8c65.9,0,119.3-53.4,119.3-119.3
		S315.9,73.3,250,73.3z M250,247.2c-30.2,0-54.6-24.5-54.6-54.6S219.8,138,250,138s54.6,24.5,54.6,54.6S280.2,247.2,250,247.2z"/>
</g>
</svg>
