<?xml version="1.0" encoding="utf-8"?>
<!-- Generator: Adobe Illustrator 18.1.1, SVG Export Plug-In . SVG Version: 6.00 Build 0)  -->
<svg version="1.1" id="Layer_1" xmlns="http://www.w3.org/2000/svg" xmlns:xlink="http://www.w3.org/1999/xlink" x="0px" y="0px"
	 viewBox="0 0 500 375" enable-background="new 0 0 500 375" xml:space="preserve">
<g>
	<path fill="#FFFFFF" d="M79.1,74.6v294.7c0,3.2,2.6,5.7,5.7,5.7h330.3c3.2,0,5.7-2.6,5.7-5.7V74.6H79.1z"/>
	<path fill="#3B89C9" d="M415.2,15H84.8c-3.2,0-5.7,2.6-5.7,5.7v58.4h341.7V20.7C420.9,17.6,418.3,15,415.2,15z"/>
	<circle fill="#17507D" cx="114.2" cy="47.1" r="10.7"/>
	<circle fill="#17507D" cx="147.5" cy="47.1" r="10.7"/>
	<circle fill="#17507D" cx="180.7" cy="47.1" r="10.7"/>
	<rect x="212" y="36.4" fill="#FFFFFF" width="186.1" height="21.3"/>
	<rect x="102.2" y="162.8" fill="#9CCBEE" width="135.8" height="64.6"/>
	<rect x="103.6" y="113.9" fill="#F8A897" width="295.4" height="27.2"/>
	<rect x="266.4" y="123.4" fill="#D65233" width="45.1" height="8.3"/>
	<rect x="197.1" y="123.4" fill="#D65233" width="45.1" height="8.3"/>
	<rect x="127.8" y="123.4" fill="#D65233" width="45.1" height="8.3"/>
	<rect x="335.7" y="123.4" fill="#D65233" width="45.1" height="8.3"/>
	<rect x="259.5" y="162.8" fill="#17507D" width="83.5" height="6.2"/>
	<rect x="259.5" y="182.8" fill="#CDCCCC" width="139.5" height="5.7"/>
	<rect x="259.5" y="201.8" fill="#CDCCCC" width="139.5" height="5.7"/>
	<rect x="259.5" y="221.7" fill="#CDCCCC" width="139.5" height="5.7"/>
	<rect x="260.4" y="254.9" fill="#F8A897" width="59.6" height="59.6"/>
	<rect x="177.5" y="254.9" fill="#F8A897" width="59.6" height="59.6"/>
	<rect x="102.2" y="254.9" fill="#F8A897" width="59.6" height="59.6"/>
	<rect x="339.5" y="254.9" fill="#F8A897" width="59.6" height="59.6"/>
	<rect x="103.1" y="324.7" fill="#CDCCCC" width="58.6" height="5.7"/>
	<rect x="177.9" y="324.7" fill="#CDCCCC" width="58.6" height="5.7"/>
	<rect x="260.9" y="324.7" fill="#CDCCCC" width="58.6" height="5.7"/>
	<rect x="340" y="324.7" fill="#CDCCCC" width="58.6" height="5.7"/>
</g>
</svg>
