<?xml version="1.0" encoding="utf-8"?>
<!-- Generator: Adobe Illustrator 18.1.1, SVG Export Plug-In . SVG Version: 6.00 Build 0)  -->
<svg version="1.1" id="Layer_1" xmlns="http://www.w3.org/2000/svg" xmlns:xlink="http://www.w3.org/1999/xlink" x="0px" y="0px"
	 viewBox="0 0 900 300" enable-background="new 0 0 900 300" xml:space="preserve">
<g>
	<g>
		<g>
			<path fill="#454545" d="M306,161.2H267v0.2c0,7,2.9,13.3,12.6,13.3c7.7,0,18.6-0.6,23.5-1.1c0.1,0,0.2,0,0.4,0
				c1.3,0,2.3,0.6,2.3,2v9.3c0,2-0.5,2.8-2.6,3.3c-7.8,2-14.4,2.9-25.1,2.9c-14.8,0-30.7-7.8-30.7-31.5v-8.6
				c0-19.7,11.5-32.2,31-32.2c20.1,0,30.2,13.7,30.2,32.2v7.1C308.6,160.1,307.6,161.2,306,161.2z M289.3,148.4
				c0-9.1-4.2-13.6-11-13.6c-6.7,0-11.3,4.7-11.3,13.6v0.5h22.3V148.4z"/>
		</g>
		<g>
			<path fill="#454545" d="M375.5,190.1h-14.8c-1.3,0-2.4-1.2-2.4-2.6v-40.8c0-8.6-1.6-11.4-9.1-11.4c-3.6,0-7.3,1.7-11.5,3.9v48.2
				c0,1.3-1.1,2.6-2.4,2.6h-14.8c-1.3,0-2.6-1.2-2.6-2.6v-65.1c0-1.3,1.1-2.4,2.5-2.4H334c1.3,0,2.4,1.1,2.4,2.4v2.9
				c6.7-4.8,12.1-6.4,20-6.4c17.8,0,21.7,12.4,21.7,27.8v40.8C378,188.8,376.8,190.1,375.5,190.1z"/>
		</g>
		<g>
			<path fill="#454545" d="M443.7,188c-7,1.7-16.7,3.2-26.1,3.2c-19.8,0-30.7-11.5-30.7-31.3v-9.6c0-19.2,10-31.3,30.7-31.3
				c2.4,0,6.5,0.4,10,0.9V98.6c0-1.3,1.1-2.4,2.4-2.4h14.8c1.3,0,2.6,1.1,2.6,2.4v85.8C447.5,186.4,447,187.3,443.7,188z
				 M427.6,135.9c-2.9-0.4-7.1-0.6-10-0.6c-8.7,0-10.9,6.4-10.9,14.9v9.6c0,8.7,2.2,15.1,10.9,15.1c4,0,7.7-0.4,10-0.7V135.9z"/>
		</g>
		<g>
			<path fill="#454545" d="M488.4,191.2c-2.5,0-6.5-0.4-10-0.9v21.2c0,1.3-1.1,2.4-2.4,2.4h-14.8c-1.3,0-2.6-1.1-2.6-2.4v-85.8
				c0-2,0.5-2.8,3.8-3.6c7-1.7,16.7-3.2,26.1-3.2c19.8,0,30.7,11.5,30.7,31.3v9.6C519.1,179.1,509.1,191.2,488.4,191.2z
				 M499.3,150.3c0-8.7-2.2-14.9-10.9-14.9c-4,0-7.7,0.2-10,0.6v38.2c2.9,0.4,7.1,0.7,10,0.7c8.7,0,10.9-6.5,10.9-15.1V150.3z"/>
		</g>
		<g>
			<path fill="#454545" d="M556.7,191.2c-19.8,0-30.7-12.4-30.7-31.8v-8.6c0-19.5,10.9-31.8,30.7-31.8c19.8,0,30.6,12.4,30.6,31.8
				v8.6C587.3,178.8,576.5,191.2,556.7,191.2z M567.6,150.8c0-9.9-3.8-14.9-10.9-14.9c-7.1,0-11,5-11,14.9v8.6
				c0,9.9,3.9,15.1,11,15.1c7.1,0,10.9-5.1,10.9-15.1V150.8z"/>
		</g>
		<g>
			<path fill="#454545" d="M614.7,111.9h-15.9c-1.3,0-2.5-1.1-2.5-2.4V98.1c0-1.3,1.1-2.4,2.5-2.4h15.9c1.3,0,2.4,1.1,2.4,2.4v11.4
				C617.2,110.8,616.1,111.9,614.7,111.9z M614.2,190.1h-14.9c-1.3,0-2.4-1.1-2.4-2.4v-65.3c0-1.3,1.1-2.4,2.4-2.4h14.9
				c1.3,0,2.4,1.1,2.4,2.4v65.3C616.7,189,615.6,190.1,614.2,190.1z"/>
		</g>
		<g>
			<path fill="#454545" d="M685.9,190.1h-14.8c-1.3,0-2.4-1.2-2.4-2.6v-40.8c0-8.6-1.6-11.4-9.1-11.4c-3.6,0-7.3,1.7-11.5,3.9v48.2
				c0,1.3-1.1,2.6-2.4,2.6h-14.8c-1.3,0-2.6-1.2-2.6-2.6v-65.1c0-1.3,1.1-2.4,2.4-2.4h13.7c1.3,0,2.4,1.1,2.4,2.4v2.9
				c6.7-4.8,12.1-6.4,20-6.4c17.8,0,21.7,12.4,21.7,27.8v40.8C688.5,188.8,687.2,190.1,685.9,190.1z"/>
		</g>
		<g>
			<path fill="#454545" d="M736,190.2c-3.7,0.6-6.1,1-9.7,1c-13.5,0-20.6-3.6-20.6-20.9v-35.5l-9.8-1.6c-1.3-0.2-2.6-1.2-2.6-2.6
				v-8.1c0-1.3,1.2-2.6,2.6-2.6h9.8v-10c0-1.3,1.1-2.2,2.5-2.4l14.9-2.6c0.1,0,0.2,0,0.4,0c1.2,0,2.2,0.9,2.2,2.1v13h10
				c1.3,0,2.4,1.1,2.4,2.4v9.9c0,1.3-1.1,2.4-2.4,2.4h-10v35.6c0,4.9,0.4,5.8,4,5.8h6c1.6,0,2.6,0.7,2.6,2.1v9.6
				C738.3,189,737.4,189.9,736,190.2z"/>
		</g>
	</g>
	<g>
		<g>
			<path fill="#454545" d="M513.2,232c-1.3,0.3-3.5,0.7-6.3,0.7c-6.7,0-11.1-4.3-11.1-12.1v-4c0-7.8,4.4-12,11.1-12
				c2.9,0,5,0.4,6.3,0.7c0.7,0.2,1,0.4,1,1.1v4.2c0,0.5-0.4,0.8-0.9,0.8c0,0,0,0-0.1,0c-1.8-0.2-3.1-0.3-5.8-0.3
				c-2.1,0-3.9,1.3-3.9,5.5v4c0,4.2,1.8,5.5,3.9,5.5c2.7,0,4-0.1,5.8-0.3c0,0,0.1,0,0.1,0c0.5,0,0.9,0.3,0.9,0.8v4.2
				C514.2,231.6,513.9,231.8,513.2,232z"/>
		</g>
		<g>
			<path fill="#454545" d="M528.6,232.7c-7.7,0-12-4.8-12-12.4V217c0-7.6,4.2-12.4,12-12.4s11.9,4.8,11.9,12.4v3.3
				C540.5,227.9,536.4,232.7,528.6,232.7z M532.9,217c0-3.9-1.5-5.8-4.2-5.8s-4.3,2-4.3,5.8v3.3c0,3.9,1.5,5.9,4.3,5.9
				s4.2-2,4.2-5.9V217z"/>
		</g>
		<g>
			<path fill="#454545" d="M567.9,232.3h-5.8c-0.5,0-1-0.5-1-1v-15.9c0-3.3-0.6-4.4-3.5-4.4c-1.4,0-2.9,0.7-4.5,1.5v18.8
				c0,0.5-0.4,1-1,1h-5.8c-0.5,0-1-0.5-1-1v-25.3c0-0.5,0.4-1,1-1h5.3c0.5,0,1,0.4,1,1v1.1c2.6-1.9,4.7-2.5,7.8-2.5
				c6.9,0,8.4,4.8,8.4,10.8v15.9C568.9,231.8,568.4,232.3,567.9,232.3z"/>
		</g>
		<g>
			<path fill="#454545" d="M583.5,232.7c-2.6,0-6.2-0.4-8.7-1c-0.6-0.1-0.9-0.5-0.9-1.1v-3.9c0-0.5,0.3-0.9,0.9-0.9c0,0,0.1,0,0.2,0
				c2.6,0.3,6.6,0.7,8.1,0.7c2.3,0,2.8-0.6,2.8-1.9c0-0.7-0.4-1.2-1.8-2L578,219c-2.7-1.5-4.2-4-4.2-7c0-4.8,3.2-7.4,9.8-7.4
				c3.8,0,6,0.5,8.5,1.1c0.6,0.1,0.9,0.5,0.9,1.1v3.9c0,0.6-0.3,0.9-0.8,0.9c0,0-0.1,0-0.1,0c-1.4-0.2-5.5-0.6-7.9-0.6
				c-1.9,0-2.5,0.3-2.5,1.4c0,0.7,0.5,1.1,1.5,1.7l5.9,3.4c4,2.3,4.8,4.8,4.8,7.3C593.7,229.2,590.5,232.7,583.5,232.7z"/>
		</g>
		<g>
			<path fill="#454545" d="M621.1,232.3h-5.3c-0.5,0-1-0.4-1-1v-1.1c-2.6,1.9-4.7,2.5-7.8,2.5c-6.9,0-8.4-4.8-8.4-10.8V206
				c0-0.5,0.5-1,1-1h5.8c0.5,0,1,0.5,1,1v15.9c0,3.3,0.6,4.4,3.5,4.4c1.4,0,2.9-0.7,4.5-1.5V206c0-0.5,0.4-1,1-1h5.8
				c0.5,0,1,0.5,1,1v25.3C622,231.9,621.6,232.3,621.1,232.3z"/>
		</g>
		<g>
			<path fill="#454545" d="M634.5,232.3h-5.8c-0.5,0-1-0.5-1-1v-34.6c0-0.5,0.5-1,1-1h5.8c0.5,0,0.9,0.4,0.9,1v34.6
				C635.4,231.8,635.1,232.3,634.5,232.3z"/>
		</g>
		<g>
			<path fill="#454545" d="M656,232.3c-1.4,0.2-2.4,0.4-3.8,0.4c-5.2,0-8-1.4-8-8.1v-13.8l-3.8-0.6c-0.5-0.1-1-0.5-1-1V206
				c0-0.5,0.5-1,1-1h3.8v-3.9c0-0.5,0.4-0.9,1-1l5.8-1c0,0,0.1,0,0.1,0c0.5,0,0.9,0.3,0.9,0.8v5h3.9c0.5,0,1,0.4,1,1v3.9
				c0,0.5-0.4,1-1,1H652v13.9c0,1.9,0.1,2.2,1.6,2.2h2.3c0.6,0,1,0.3,1,0.8v3.7C656.9,231.9,656.5,232.2,656,232.3z"/>
		</g>
		<g>
			<path fill="#454545" d="M668.4,201.9h-6.2c-0.5,0-1-0.4-1-1v-4.4c0-0.5,0.4-1,1-1h6.2c0.5,0,1,0.4,1,1v4.4
				C669.3,201.5,668.9,201.9,668.4,201.9z M668.2,232.3h-5.8c-0.5,0-1-0.4-1-1v-25.4c0-0.5,0.4-1,1-1h5.8c0.5,0,1,0.4,1,1v25.4
				C669.1,231.9,668.7,232.3,668.2,232.3z"/>
		</g>
		<g>
			<path fill="#454545" d="M697.5,232.3h-5.8c-0.5,0-1-0.5-1-1v-15.9c0-3.3-0.6-4.4-3.5-4.4c-1.4,0-2.9,0.7-4.5,1.5v18.8
				c0,0.5-0.4,1-1,1H676c-0.5,0-1-0.5-1-1v-25.3c0-0.5,0.4-1,1-1h5.3c0.5,0,1,0.4,1,1v1.1c2.6-1.9,4.7-2.5,7.8-2.5
				c6.9,0,8.4,4.8,8.4,10.8v15.9C698.5,231.8,698,232.3,697.5,232.3z"/>
		</g>
		<g>
			<path fill="#454545" d="M727.9,210l-1.5,0.5c0.6,0.9,1,2.4,1,3.5v0.4c0,6.2-4.3,8.9-11.8,8.9c-2.2,0-4-0.3-5-0.7
				c-0.5,0.3-0.7,0.7-0.7,1.1c0,0.8,0.3,1.1,1.4,1.3l5.4,1.2c8.3,1.8,11.1,3.1,11.1,7.7v0.4c0,5.2-4.1,7.8-12.5,7.8
				c-7.9,0-12.1-2.8-12.1-7.8v-0.4c0-2,0.8-3.8,2.9-5.3c-1.7-1-2.4-2.9-2.4-4.4c0-1.8,0.9-3.1,2.1-4c-1.5-1.3-2.2-3.8-2.2-5.7V214
				c0-5.4,3.6-9,11.9-9h11.9c0.7,0,1.2,0.6,1.2,1.2v2.7C728.8,209.6,728.5,209.8,727.9,210z M720.2,233.9c0-0.9-0.6-1.5-4.9-2.5
				l-3.5-0.8c-0.6,0.8-1,1.6-1,3.2v0.4c0,1.6,1.1,2.4,4.8,2.4c3.9,0,4.6-1,4.6-2.4V233.9z M720,214c0-2-0.9-3.4-4.2-3.4
				c-3.4,0-4.3,1.5-4.3,3.4v0.4c0,1.6,0.7,3.3,4.3,3.3c3.3,0,4.2-1.3,4.2-3.3V214z"/>
		</g>
		<g>
			<path fill="#D65133" d="M739.2,232.3h-5.6c-0.5,0-1-0.4-1-1v-6c0-0.5,0.5-0.9,1-0.9h5.6c0.5,0,1,0.4,1,0.9v6
				C740.1,231.9,739.7,232.3,739.2,232.3z"/>
		</g>
		<g>
			<path fill="#D65133" d="M762.5,232c-1.3,0.3-3.5,0.7-6.3,0.7c-6.7,0-11.1-4.3-11.1-12.1v-4c0-7.8,4.4-12,11.1-12
				c2.9,0,5,0.4,6.3,0.7c0.7,0.2,1,0.4,1,1.1v4.2c0,0.5-0.4,0.8-0.9,0.8c0,0,0,0-0.1,0c-1.8-0.2-3.1-0.3-5.8-0.3
				c-2.1,0-3.9,1.3-3.9,5.5v4c0,4.2,1.8,5.5,3.9,5.5c2.7,0,4-0.1,5.8-0.3c0,0,0.1,0,0.1,0c0.5,0,0.9,0.3,0.9,0.8v4.2
				C763.5,231.6,763.2,231.8,762.5,232z"/>
		</g>
		<g>
			<path fill="#D65133" d="M777.9,232.7c-7.7,0-12-4.8-12-12.4V217c0-7.6,4.2-12.4,12-12.4s11.9,4.8,11.9,12.4v3.3
				C789.8,227.9,785.6,232.7,777.9,232.7z M782.2,217c0-3.9-1.5-5.8-4.2-5.8s-4.3,2-4.3,5.8v3.3c0,3.9,1.5,5.9,4.3,5.9
				s4.2-2,4.2-5.9V217z"/>
		</g>
		<g>
			<path fill="#D65133" d="M829.7,232.3H824c-0.5,0-1-0.5-1-1V215c0-3-0.7-4-2.9-4c-0.8,0-2.2,0.2-3.7,0.9c0.1,1,0.1,2,0.1,3.1v16.2
				c0,0.5-0.4,1-1,1h-5.8c-0.5,0-1-0.5-1-1V215c0-3-0.6-4-2.8-4c-0.9,0-2.1,0.5-3.6,1.2v19c0,0.5-0.4,1-1,1h-5.8c-0.5,0-1-0.5-1-1
				v-25.3c0-0.5,0.4-1,1-1h5.4c0.5,0,1,0.4,1,1v1c2-1.3,4.3-2.4,7-2.4c2.5,0,4.3,0.7,5.6,2.3c2.8-1.6,4.7-2.3,7.8-2.3
				c6.3,0,8.2,4.2,8.2,10.4v16.2C830.7,231.8,830.3,232.3,829.7,232.3z"/>
		</g>
	</g>
	<g>
		<path fill="#D65133" d="M187,165.9l26.5-26.9c0,0,12.6,74.8-42.9,85s-99.4-4.8-101-53.1c-1.6-48.3-0.3-79.3,46.6-88.8
			s77.6,4.4,89.1,23.8c-0.3,0.3-51,54.1-56.1,58.2c-5.1,4.1-24.8,3.4-20.4-18l37.4-36.7c0,0-62.9-13.3-69.4,20.4
			c-6.5,33.7,0,65,22.1,68S188.5,204.8,187,165.9z"/>
	</g>
</g>
</svg>
