<?xml version="1.0" encoding="utf-8"?>
<!-- Generator: Adobe Illustrator 18.1.1, SVG Export Plug-In . SVG Version: 6.00 Build 0)  -->
<svg version="1.1" id="Layer_1" xmlns="http://www.w3.org/2000/svg" xmlns:xlink="http://www.w3.org/1999/xlink" x="0px" y="0px"
	 viewBox="0 0 1170 842" enable-background="new 0 0 1170 842" xml:space="preserve">
<rect display="none" fill="#48A4D7" width="1170" height="842"/>
<polygon fill="#D6EAF9" points="1008,626.5 1019.5,551.7 974,507.3 780.5,494.5 730.4,596 746.4,626.2 "/>
<polygon fill="#D6EAF9" points="169.2,614 129,563.5 168.1,523.6 289,507.3 422.4,523.6 470,580.2 414.4,614 "/>
<polygon fill="#D6EAF9" points="697,739 762.1,705.8 716.5,616 524,588.8 438.9,638.1 418.6,689 448,739 "/>
<polygon fill="#D6EAF9" points="265.3,183.5 422.4,132.5 588.3,163 557.1,234.6 295.3,234.6 "/>
<polygon fill="#D6EAF9" points="78,430.5 305.6,430.5 368.9,408.1 396.5,346 309.5,312 155.9,298 40,356.3 "/>
<polygon fill="#D6EAF9" points="802.5,329 1014,282.2 1128,367 1069,430.5 840,430.5 793,398.7 "/>
<polygon fill="#D6EAF9" points="583.9,225.9 627,129.7 741.5,147.4 780.5,117.8 927,177.4 863,272 630,272 "/>
<g>
	<g>
		<path fill="none" stroke="#D6EAF9" stroke-miterlimit="10" d="M422.4,132.5c0,0,127.8-67.3,319.1,4.5"/>
		<polyline fill="none" stroke="#D6EAF9" stroke-miterlimit="10" points="730.4,137 741.5,137 733.1,129.7 		"/>
		<path fill="none" stroke="#D6EAF9" stroke-miterlimit="10" d="M891.5,212.5c0,0,44,11,57,73"/>
		<polyline fill="none" stroke="#D6EAF9" stroke-miterlimit="10" points="942.3,275.9 948.5,285.2 949.9,274.2 		"/>
		<path fill="none" stroke="#D6EAF9" stroke-miterlimit="10" d="M750.3,272c0,0-228,40.8-327.9-27.9"/>
		<polyline fill="none" stroke="#D6EAF9" stroke-miterlimit="10" points="433.2,246.6 422.4,244.1 428.9,253.1 		"/>
		<path fill="none" stroke="#D6EAF9" stroke-miterlimit="10" d="M953.7,430.5c0,0-28.2,49-70.2,64"/>
		<polyline fill="none" stroke="#D6EAF9" stroke-miterlimit="10" points="891.7,487 883.5,494.5 894.6,494.3 		"/>
		<path fill="none" stroke="#D6EAF9" stroke-miterlimit="10" d="M780.5,528.1c0,0-120.7-29.3-194,60.7"/>
		<path fill="none" stroke="#D6EAF9" stroke-miterlimit="10" d="M762.1,705.8c0,0,120.3,1.6,118-66.1"/>
		<polyline fill="none" stroke="#D6EAF9" stroke-miterlimit="10" points="590,578.2 586.5,588.8 596.1,583.1 		"/>
		<polyline fill="none" stroke="#D6EAF9" stroke-miterlimit="10" points="884.3,648.4 880.2,638.1 876.4,648.5 		"/>
		<path fill="none" stroke="#D6EAF9" stroke-miterlimit="10" d="M439.9,689c0,0-113.6,2.5-142-68"/>
		<path fill="none" stroke="#D6EAF9" stroke-miterlimit="10" d="M289,507.3c0,0-83.2-1.2-83.9-68.8"/>
		<polyline fill="none" stroke="#D6EAF9" stroke-miterlimit="10" points="209.4,448.7 205.1,438.5 201.6,449 		"/>
		<path fill="none" stroke="#D6EAF9" stroke-miterlimit="10" d="M210.5,313.5c0,0-4.3-69.7,65.9-93.1"/>
		<polyline fill="none" stroke="#D6EAF9" stroke-miterlimit="10" points="267.9,227.7 276.4,220.5 265.3,220.4 		"/>
		<polyline fill="none" stroke="#D6EAF9" stroke-miterlimit="10" points="305.6,629 297.9,621 298.4,632.1 		"/>
	</g>
	<circle fill="#A4DCF7" stroke="#A4DCF7" stroke-miterlimit="10" cx="422.4" cy="132.5" r="3.8"/>
	<polyline fill="#A4DCF7" stroke="#A4DCF7" stroke-miterlimit="10" points="422.4,132.5 422.4,91.5 464,91.5 455.3,98.5 464,105.5 
		422.4,105.5 	"/>
	<text transform="matrix(1 0 0 1 428.1375 101.0371)" fill="#454545" font-family="'OpenSans'" font-size="10">start</text>
	<circle fill="#FDDCD4" stroke="#FDDCD4" stroke-miterlimit="10" cx="289" cy="507.3" r="3.8"/>
	<polyline fill="#FDDCD4" stroke="#FDDCD4" stroke-miterlimit="10" points="289,507.3 289,466.4 337.7,466.4 329,473.4 337.7,480.4 
		289,480.4 	"/>
	<g>
		<text transform="matrix(1 0 0 1 296.7948 476.8508)" fill="#454545" font-family="'OpenSans'" font-size="10">finish</text>
	</g>
</g>
</svg>
