<?xml version="1.0" encoding="utf-8"?>
<!-- Generator: Adobe Illustrator 18.1.1, SVG Export Plug-In . SVG Version: 6.00 Build 0)  -->
<svg version="1.1" id="Layer_1" xmlns="http://www.w3.org/2000/svg" xmlns:xlink="http://www.w3.org/1999/xlink" x="0px" y="0px"
	 viewBox="0 0 900 300" enable-background="new 0 0 900 300" xml:space="preserve">
<g>
	
		<ellipse transform="matrix(0.9971 -7.630832e-002 7.630832e-002 0.9971 -10.0177 24.7854)" opacity="0.7" fill="#3B89C9" cx="319.3" cy="143.5" rx="191.1" ry="70.9"/>
	
		<ellipse transform="matrix(0.9971 -7.630832e-002 7.630832e-002 0.9971 -11.7861 22.089)" opacity="0.7" fill="#3B89C9" cx="283.2" cy="165.3" rx="191.1" ry="70.9"/>
	<g>
		<path fill="#FFFFFF" d="M149.7,206.9c0.6-7.2,1.4-20.1,2.3-38.8c0.9-18.7,1.5-34.8,1.7-48.4c4.4,0.1,7.6,0.1,9.5,0.1
			c2.5,0,5.6,0,9.2-0.1l-1.5,23.3l-2.2,52l-0.3,11.9c-3.5-0.1-6.5-0.1-8.9-0.1C158.7,206.7,155.4,206.8,149.7,206.9z"/>
		<path fill="#FFFFFF" d="M184.3,206.9c0.6-6.4,1.1-11.7,1.4-16c0.4-6.8,0.8-14.7,1.1-23.6c0.3-8.9,0.6-17.3,0.7-25.3
			c4.1,0.1,7.3,0.1,9.3,0.1c1.9,0,5,0,9.3-0.1c-0.6,7.4-1,14.5-1.4,21.2c-0.3,6.7-0.6,14.4-0.8,23.1c-0.2,8.7-0.2,15.6-0.2,20.6
			c-3.9-0.1-7-0.1-9.3-0.1C192.1,206.7,188.8,206.8,184.3,206.9z M187.8,130.8c0.2-4.4,0.3-7.7,0.3-10.1v-2c3.9,0.1,7,0.1,9.4,0.1
			c3.3,0,6.4,0,9.3-0.1c-0.1,1.1-0.2,2.3-0.3,3.6l-0.3,8.5c-3.2-0.1-6.2-0.1-8.9-0.1C194.6,130.7,191.4,130.7,187.8,130.8z"/>
		<path fill="#FFFFFF" d="M223.8,220.3c9.6,3.1,17.9,4.7,24.9,4.7c2.7,0,5.2-0.3,7.6-1c2.4-0.7,4.4-1.6,6-2.9c1.6-1.3,2.9-3,3.8-5.1
			c0.9-2.1,1.5-4.6,1.8-7.5c0.3-2.8,0.5-7.1,0.7-12.8c-1.7,2.3-3.2,4-4.5,5.3c-1.3,1.3-2.9,2.4-4.8,3.4c-1.9,1-4,1.8-6.5,2.4
			c-2.5,0.6-5.1,0.9-7.8,0.9c-3.7,0-7.3-0.6-10.7-1.8c-3.4-1.2-6.4-3-9-5.5c-2.6-2.5-4.6-5.7-6-9.5c-1.4-3.8-2-7.8-2-11.9
			c0-5.9,1.1-11.5,3.4-16.8c2.2-5.3,5.5-9.6,9.8-13c4.3-3.4,8.9-5.7,13.9-7c4.9-1.3,10.4-1.9,16.4-1.9c3.3,0,7.1,0.2,11.3,0.6
			c4.2,0.4,9.8,1.2,16.7,2.5l-1.5,20.2L286,189l-0.5,22.9c-0.1,2.6-0.4,5.1-1,7.5c-0.5,2.4-1.3,4.6-2.4,6.5
			c-1.1,1.9-2.5,3.6-4.2,5.1c-1.7,1.5-3.6,2.7-5.8,3.6c-2.1,0.9-4.8,1.7-8,2.3c-3.2,0.6-6.6,0.9-10.2,0.9c-3.9,0-8.3-0.3-13.2-0.8
			c-4.9-0.5-10.3-1.5-16.2-2.9L223.8,220.3z M270.4,154.7c-3.7-0.8-7.1-1.1-10.3-1.1c-5.5,0-10.1,1-13.7,3c-3.6,2-6.4,5-8.4,8.9
			c-2,3.9-2.9,8-2.9,12.3c0,3.2,0.6,6.2,1.8,8.9c1.2,2.7,3.1,4.8,5.6,6.2c2.5,1.4,5.3,2.1,8.4,2.1c2.2,0,4.2-0.3,6.1-1
			c1.9-0.7,3.6-1.7,5.1-3.1c1.5-1.4,2.9-3.2,4.1-5.2c1.2-2.1,2-4.4,2.5-7.1c0.5-2.6,0.9-5.9,1.1-9.8
			C270,164.8,270.2,160.1,270.4,154.7z"/>
		<path fill="#FFFFFF" d="M301.6,206.9l1.5-20.8l1.5-29.7l0.9-36.7c3.7,0.1,6.9,0.1,9.3,0.1c3.2,0,6.3,0,9.3-0.1l-1.2,15.2
			c-0.3,3.7-0.6,9.8-1,18.1c1.4-2,2.5-3.6,3.4-4.6c0.9-1,1.9-2,3.1-2.8c1.1-0.9,2.3-1.6,3.5-2.2c1.2-0.6,2.6-1.1,4.2-1.6
			c1.6-0.5,3.4-0.8,5.3-1.1c2-0.3,4-0.4,6-0.4c3.5,0,6.9,0.4,10.2,1.2c3.3,0.8,6.1,2.2,8.4,4.1c2.4,1.9,4,4.2,4.9,6.7
			c0.9,2.6,1.3,5.3,1.3,8.1c0,1.8-0.1,4.7-0.3,8.6l-1.5,27.9c-0.1,2.9-0.2,6.2-0.2,10c-3.4-0.1-6.5-0.1-9.1-0.1
			c-2.8,0-6.1,0-9.8,0.1c0.6-5,1.2-11.9,1.7-20.6c0.6-8.7,0.9-14.9,0.9-18.5c0-3.4-0.5-6-1.6-7.9c-1.1-1.9-2.7-3.3-4.8-4.2
			c-2.1-0.9-4.4-1.4-6.9-1.4c-3.2,0-6.1,0.6-8.5,1.7c-2.4,1.1-4.4,2.8-6,5c-1.3,1.8-2.4,4.4-3.3,7.9c-0.9,3.6-1.6,9.1-2,16.6
			c-0.2,3.6-0.5,10.7-0.7,21.4c-3.4-0.1-6.3-0.1-8.7-0.1C309,206.7,305.8,206.8,301.6,206.9z"/>
		<path fill="#FFFFFF" d="M425.5,193.5c-0.5,2.3-1.3,6.7-2.4,13c-3.6,0.8-6.4,1.3-8.4,1.5c-2,0.2-4,0.3-5.7,0.3
			c-3.2,0-6-0.3-8.5-0.9c-2.5-0.6-4.5-1.6-6.2-3.2c-1.6-1.5-2.7-3.3-3.3-5.3c-0.6-2-0.9-4.1-0.9-6.3c0-0.6,0-1.3,0.1-2.2
			c0-0.9,0.2-4,0.5-9.1l1.5-26.6H383c0.2-2.6,0.4-6.7,0.6-12.3h9.6c0.3-2.5,0.5-6.7,0.8-12.6l7.5-1.5c1.6-0.3,4.6-1,9.1-2.1
			c-0.3,5.7-0.5,11.1-0.5,16.2h16.2c-0.3,5.7-0.4,9.9-0.4,12.3h-16.3c-0.9,17.3-1.3,27.3-1.3,30.1c0,2.6,0.3,4.7,0.9,6.1
			c0.6,1.4,1.5,2.5,2.8,3.1c1.3,0.6,2.6,1,4.1,1c1.1,0,2.2-0.1,3.4-0.3C420.6,194.8,422.6,194.3,425.5,193.5z"/>
		<path fill="#444444" d="M432.7,236.2c1.1-11.9,2-27.3,2.9-46.2s1.3-34.2,1.3-46c8.1-1.4,14.3-2.4,18.8-2.9
			c4.4-0.5,8.8-0.7,13.2-0.7c5.7,0,11,0.7,15.8,2c4.8,1.4,8.6,3.6,11.5,6.8c2.9,3.2,5,6.9,6.4,11.1s2.1,8.6,2.1,13.2
			c0,4.6-0.7,9.1-2,13.4c-1.3,4.3-3.3,8.2-6.1,11.6c-2.7,3.4-5.9,5.9-9.5,7.5c-3.6,1.6-7.5,2.3-11.8,2.3c-2.5,0-5-0.3-7.4-0.9
			c-2.4-0.6-4.6-1.4-6.4-2.4c-1.8-1-3.4-2-4.6-3c-1.2-1-2.7-2.5-4.5-4.5l-1,27.8l-0.1,4.3c0,0.6-0.1,2.7-0.1,6.4
			c-3.9,0-6.9-0.1-9.1-0.1L432.7,236.2z M454.5,155.7c-0.3,2.3-0.5,4.3-0.6,5.9l-0.4,7.1c-0.2,3.1-0.3,5.3-0.3,6.8
			c0,2.6,0.3,5.1,0.8,7.5c0.5,2.4,1.6,4.6,3.2,6.6c1.6,2,3.5,3.5,5.7,4.6c2.2,1,4.5,1.6,6.8,1.6c3.2,0,6.2-0.9,8.9-2.8
			c2.7-1.8,4.7-4.6,6.2-8.1c1.5-3.6,2.2-7.4,2.2-11.4c0-4.5-0.8-8.2-2.4-11.3c-1.6-3.1-3.7-5.3-6.4-6.7c-2.7-1.4-5.7-2.1-9.1-2.1
			C464.5,153.2,459.7,154,454.5,155.7z"/>
		<path fill="#444444" d="M550.5,140.4c4.9,0,9.6,0.7,14.1,2.2c4.5,1.5,8.3,3.6,11.4,6.5c3.1,2.9,5.5,6.4,7.1,10.5
			c1.6,4.1,2.4,8.5,2.4,13.1c0,4.9-0.8,9.5-2.5,14c-1.7,4.5-4.1,8.4-7.2,11.7c-3.2,3.3-7.1,5.8-11.8,7.4c-4.7,1.6-9.7,2.5-15,2.5
			c-4.9,0-9.6-0.7-14.1-2.2c-4.4-1.5-8.2-3.7-11.4-6.6c-3.2-2.9-5.5-6.5-7.2-10.7c-1.6-4.2-2.5-8.6-2.5-13.2c0-4.7,0.7-9.2,2.2-13.4
			c1.5-4.3,3.8-8,7-11.4c3.2-3.3,7.2-5.9,12.2-7.7C540.1,141.3,545.2,140.4,550.5,140.4z M550.5,153.5c-3.7,0-7,0.9-9.9,2.7
			c-2.9,1.8-5.1,4.5-6.5,8.1c-1.4,3.6-2.1,7.5-2.1,11.7c0,3.7,0.6,7,1.7,9.9c1.2,2.9,3.1,5.2,5.7,7c2.7,1.8,5.8,2.7,9.4,2.7
			c3.7,0,7-0.9,9.8-2.8c2.8-1.9,4.9-4.6,6.4-8.2c1.4-3.6,2.1-7.6,2.1-11.9c0-3.5-0.6-6.7-1.7-9.6c-1.1-2.9-3-5.2-5.6-7
			C557.4,154.4,554.2,153.5,550.5,153.5z"/>
		<path fill="#444444" d="M596.3,206.9c0.6-6.4,1.1-11.7,1.4-16c0.4-6.8,0.8-14.7,1.1-23.6c0.3-8.9,0.6-17.3,0.7-25.3
			c4.1,0.1,7.3,0.1,9.3,0.1c1.9,0,5,0,9.3-0.1c-0.6,7.4-1,14.5-1.4,21.2c-0.3,6.7-0.6,14.4-0.8,23.1c-0.2,8.7-0.2,15.6-0.2,20.6
			c-3.9-0.1-7-0.1-9.3-0.1C604.2,206.7,600.8,206.8,596.3,206.9z M599.8,130.8c0.2-4.4,0.3-7.7,0.3-10.1v-2c3.9,0.1,7,0.1,9.4,0.1
			c3.3,0,6.4,0,9.3-0.1c-0.1,1.1-0.2,2.3-0.3,3.6l-0.3,8.5c-3.2-0.1-6.2-0.1-8.9-0.1C606.6,130.7,603.4,130.7,599.8,130.8z"/>
		<path fill="#444444" d="M630.8,206.9c1-9.7,1.8-20.5,2.4-32.6c0.7-12,1-22.8,1.1-32.4c3.9,0.1,7.1,0.1,9.4,0.1
			c2.8,0,5.7,0,8.8-0.1l-0.7,10.9c1.3-1.9,2.5-3.4,3.5-4.5c1-1.1,2.3-2.2,3.8-3.3c1.6-1.1,3.2-1.9,5-2.6c1.8-0.6,3.7-1.1,5.9-1.5
			c2.2-0.4,4.5-0.6,6.9-0.6c3.8,0,7.4,0.5,10.9,1.4c3.5,1,6.3,2.5,8.4,4.6c2.1,2.1,3.5,4.4,4.2,6.8c0.7,2.5,1,5.1,1,7.9
			c0,1.1-0.1,3-0.2,5.5l-1.3,27.9c-0.2,3.9-0.3,8-0.3,12.4c-3.4-0.1-6.2-0.1-8.6-0.1c-3.2,0-6.5,0-9.8,0.1
			c0.3-3.7,0.8-10.2,1.3-19.4c0.5-9.2,0.8-15.3,0.8-18.3c0-3.4-0.5-6.1-1.6-8.1c-1.1-2-2.7-3.6-4.9-4.7c-2.2-1.1-4.6-1.6-7.2-1.6
			c-2.6,0-4.9,0.5-7.1,1.5c-2.2,1-4.1,2.4-5.7,4.3c-1.7,1.9-3,4.3-4,7.1c-1,3-1.7,7.9-2.2,14.7c-0.4,6.1-0.8,14.2-1,24.5
			c-3.3-0.1-6.2-0.1-8.9-0.1C637.9,206.7,634.6,206.8,630.8,206.9z"/>
		<path fill="#444444" d="M754.7,193.5c-0.5,2.3-1.3,6.7-2.4,13c-3.6,0.8-6.4,1.3-8.4,1.5c-2,0.2-4,0.3-5.7,0.3
			c-3.2,0-6-0.3-8.5-0.9c-2.5-0.6-4.5-1.6-6.2-3.2c-1.6-1.5-2.7-3.3-3.3-5.3c-0.6-2-0.9-4.1-0.9-6.3c0-0.6,0-1.3,0.1-2.2
			c0-0.9,0.2-4,0.5-9.1l1.5-26.6h-9.2c0.2-2.6,0.4-6.7,0.6-12.3h9.6c0.3-2.5,0.5-6.7,0.8-12.6l7.5-1.5c1.6-0.3,4.6-1,9.1-2.1
			c-0.3,5.7-0.5,11.1-0.5,16.2h16.2c-0.3,5.7-0.4,9.9-0.4,12.3h-16.3c-0.9,17.3-1.3,27.3-1.3,30.1c0,2.6,0.3,4.7,0.9,6.1
			c0.6,1.4,1.5,2.5,2.8,3.1c1.3,0.6,2.6,1,4.1,1c1.1,0,2.2-0.1,3.4-0.3C749.8,194.8,751.8,194.3,754.7,193.5z"/>
	</g>
	<path fill="#3B89C9" d="M768.3,138.3H791c0,0,0.9,17.5-11.4,17.5C767.4,155.8,768.3,138.3,768.3,138.3z"/>
	<circle fill="#3B89C9" cx="781.8" cy="87.9" r="25.7"/>
	<path fill="#3B89C9" d="M759.7,101c9.8,16.3,8.4,34.1,8.4,34.1h23.2c0,0,0.9-21.5,11.7-32.6C809.5,95.8,759.7,101,759.7,101z"/>
</g>
</svg>
