<?xml version="1.0" encoding="utf-8"?>
<!-- Generator: Adobe Illustrator 18.1.1, SVG Export Plug-In . SVG Version: 6.00 Build 0)  -->
<svg version="1.1" id="Layer_1" xmlns="http://www.w3.org/2000/svg" xmlns:xlink="http://www.w3.org/1999/xlink" x="0px" y="0px"
	 viewBox="0 0 264 160" enable-background="new 0 0 264 160" xml:space="preserve">
<g>
	<rect x="0" y="0" fill="#D6EAF9" width="264" height="160"/>
	<g>
		<polygon fill="#3B89C9" points="50.8,61.6 132,102 213.2,61.6 132,21.1 		"/>
		<rect x="67.2" y="17.5" fill="#FFFFFF" width="129.5" height="88.2"/>
		<rect x="85" y="48.1" fill="#CDCCCC" width="94.1" height="2.5"/>
		<rect x="85" y="59.3" fill="#CDCCCC" width="94.1" height="2.5"/>
		<rect x="85" y="70.5" fill="#CDCCCC" width="94.1" height="2.5"/>
		<rect x="85" y="81.6" fill="#CDCCCC" width="94.1" height="2.5"/>
		<rect x="85" y="37" fill="#CDCCCC" width="94.1" height="2.5"/>
		<rect x="85" y="92.8" fill="#CDCCCC" width="94.1" height="2.5"/>
		<polygon fill="#9CCBEE" points="50.8,142.5 50.8,61.6 132,102 		"/>
		<polygon fill="#9CCBEE" points="213.2,142.5 132,102 213.2,61.6 		"/>
		<polygon fill="#3B89C9" points="132,102 50.8,142.5 213.2,142.5 		"/>
	</g>
</g>
<g>
	<circle fill="#2E6EA4" cx="30.8" cy="30.8" r="20.8"/>
	<g>
		<path fill="#FFFFFF" d="M33.9,39.1h-3.6v-9.9l0-1.6l0.1-1.8c-0.6,0.6-1,1-1.3,1.2l-2,1.6l-1.7-2.2l5.5-4.4h3V39.1z"/>
	</g>
</g>
</svg>
