<?xml version="1.0" encoding="utf-8"?>
<!-- Generator: Adobe Illustrator 18.1.1, SVG Export Plug-In . SVG Version: 6.00 Build 0)  -->
<svg version="1.1" id="Layer_1" xmlns="http://www.w3.org/2000/svg" xmlns:xlink="http://www.w3.org/1999/xlink" x="0px" y="0px"
	 viewBox="0 0 264 160" enable-background="new 0 0 264 160" xml:space="preserve">
<g>
	<rect y="0" fill="#D8E7F4" width="264" height="160"/>
	<g>
		<rect x="40.4" y="101.1" fill="#3B89C9" width="10.8" height="31.7"/>
		<rect x="51.2" y="111.4" fill="#9CCBEE" width="10.8" height="21.5"/>
		<rect x="72.7" y="80" fill="#3B89C9" width="10.8" height="52.9"/>
		<rect x="83.5" y="90.6" fill="#9CCBEE" width="10.8" height="42.3"/>
		<rect x="105.1" y="58.9" fill="#3B89C9" width="10.8" height="74"/>
		<rect x="115.8" y="90.6" fill="#9CCBEE" width="10.8" height="42.3"/>
		<rect x="137.4" y="79.5" fill="#3B89C9" width="10.8" height="53.4"/>
		<rect x="148.2" y="69.4" fill="#9CCBEE" width="10.8" height="63.4"/>
		<rect x="169.7" y="48.3" fill="#3B89C9" width="10.8" height="84.6"/>
		<rect x="180.5" y="58.9" fill="#9CCBEE" width="10.8" height="74"/>
		<rect x="202.1" y="37.7" fill="#3B89C9" width="10.8" height="95.1"/>
		<rect x="212.8" y="27.1" fill="#9CCBEE" width="10.8" height="105.7"/>
	</g>
</g>
<g>
	<circle fill="#2E6EA4" cx="30.8" cy="30.8" r="20.8"/>
	<g>
		<path fill="#FFFFFF" d="M37.3,35.6h-2.1v3.6h-3.5v-3.6h-7.3V33L31.9,22h3.3v10.8h2.1V35.6z M31.7,32.8v-2.9c0-0.5,0-1.2,0.1-2.1
			s0.1-1.5,0.1-1.6h-0.1c-0.3,0.6-0.6,1.3-1,1.9l-3.1,4.7H31.7z"/>
	</g>
</g>
</svg>
