<?xml version="1.0" encoding="utf-8"?>
<!-- Generator: Adobe Illustrator 18.1.1, SVG Export Plug-In . SVG Version: 6.00 Build 0)  -->
<svg version="1.1" id="Layer_1" xmlns="http://www.w3.org/2000/svg" xmlns:xlink="http://www.w3.org/1999/xlink" x="0px" y="0px"
	 viewBox="0 0 264 160" enable-background="new 0 0 264 160" xml:space="preserve">
<g>
	<rect x="0" y="0" fill="#D6EAF9" width="264" height="160"/>
	<g>
		<g>
			<polygon fill="#3B89C9" points="82.4,116.7 104.6,106.3 114.7,68.8 93.4,61.5 71.5,61.5 50.2,68.8 60.3,106.3 			"/>
			<polygon fill="#3B89C9" points="92,53.7 72.9,53.7 71.5,61.5 82.4,67.2 93.4,61.5 			"/>
			<path fill="#3B89C9" d="M97.1,46c-1.6,10.5-6.6,18.9-14.7,18.9S69.2,56.3,67.8,46c-1.4-10.3,6.6-18.9,14.7-18.9
				S98.6,35.7,97.1,46z"/>
			<path fill="#3B89C9" d="M82.4,116.7c-12.9,0-22.1-10.3-22.1-10.3L50.2,68.8l19.3-6.6l12.9,5.1l12.9-5.1l19.3,6.6l-10.1,37.6
				C104.6,106.3,95.3,116.7,82.4,116.7z"/>
			<path fill="#17507D" d="M73,82.5l2.5-2.5l5,4.9l8.8-8.7l2.5,2.5L80.6,89.9L73,82.5z"/>
		</g>
		<g>
			<polygon fill="#ABABAB" points="132,116.7 154.1,106.3 164.3,68.8 143,61.5 121,61.5 99.7,68.8 109.9,106.3 			"/>
			<polygon fill="#ABABAB" points="141.5,53.7 122.5,53.7 121,61.5 132,67.2 143,61.5 			"/>
			<path fill="#ABABAB" d="M146.7,46c-1.6,10.5-6.6,18.9-14.7,18.9s-13.3-8.6-14.7-18.9c-1.4-10.3,6.6-18.9,14.7-18.9
				S148.2,35.7,146.7,46z"/>
			<path fill="#ABABAB" d="M132,116.7c-12.9,0-22.1-10.3-22.1-10.3L99.7,68.8l19.3-6.6l12.9,5.1l12.9-5.1l19.3,6.6l-10.1,37.6
				C154.1,106.3,144.9,116.7,132,116.7z"/>
		</g>
		<g>
			<polygon fill="#ABABAB" points="181.6,116.7 203.7,106.3 213.8,68.8 192.5,61.5 170.6,61.5 149.3,68.8 159.4,106.3 			"/>
			<polygon fill="#ABABAB" points="191.1,53.7 172,53.7 170.6,61.5 181.6,67.2 192.5,61.5 			"/>
			<path fill="#ABABAB" d="M196.2,46c-1.6,10.5-6.6,18.9-14.7,18.9c-8.1,0-13.3-8.6-14.7-18.9c-1.4-10.3,6.6-18.9,14.7-18.9
				C189.7,27.1,197.8,35.7,196.2,46z"/>
			<path fill="#ABABAB" d="M181.6,116.7c-12.9,0-22.1-10.3-22.1-10.3l-10.1-37.6l19.3-6.6l12.9,5.1l12.9-5.1l19.3,6.6l-10.1,37.6
				C203.7,106.3,194.5,116.7,181.6,116.7z"/>
		</g>
		<g>
			<polygon fill="#CDCCCC" points="105.5,145.9 127.6,135.5 137.7,98 116.4,90.7 94.5,90.7 73.2,98 83.3,135.5 			"/>
			<polygon fill="#CDCCCC" points="115,82.9 95.9,82.9 94.5,90.7 105.5,96.4 116.4,90.7 			"/>
			<path fill="#CDCCCC" d="M120.1,75.2c-1.6,10.5-6.6,18.9-14.7,18.9s-13.3-8.6-14.7-18.9c-1.4-10.3,6.6-18.9,14.7-18.9
				S121.7,64.9,120.1,75.2z"/>
			<path fill="#CDCCCC" d="M105.5,145.9c-12.9,0-22.1-10.3-22.1-10.3L73.2,98l19.3-6.6l12.9,5.1l12.9-5.1l19.3,6.6l-10.1,37.6
				C127.6,135.5,118.4,145.9,105.5,145.9z"/>
		</g>
		<g>
			<polygon fill="#9CCBEE" points="155.8,146.9 178,136.5 188.1,99 166.8,91.7 144.9,91.7 123.6,99 133.7,136.5 			"/>
			<polygon fill="#9CCBEE" points="165.4,83.9 146.3,83.9 144.9,91.7 155.8,97.4 166.8,91.7 			"/>
			<path fill="#9CCBEE" d="M170.5,76.2c-1.6,10.5-6.6,18.9-14.7,18.9c-8.1,0-13.3-8.6-14.7-18.9c-1.4-10.3,6.6-18.9,14.7-18.9
				C163.9,57.3,172,65.9,170.5,76.2z"/>
			<path fill="#9CCBEE" d="M155.8,146.9c-12.9,0-22.1-10.3-22.1-10.3L123.6,99l19.3-6.6l12.9,5.1l12.9-5.1l19.3,6.6L178,136.5
				C178,136.5,168.7,146.9,155.8,146.9z"/>
			<path fill="#3B89C9" d="M146.4,116l2.5-2.5l5,4.9l8.8-8.7l2.5,2.5L154,123.5L146.4,116z"/>
		</g>
	</g>
</g>
<g>
	<circle fill="#2E6EA4" cx="30.8" cy="30.8" r="20.8"/>
	<g>
		<path fill="#FFFFFF" d="M36.3,25.8c0,1.1-0.3,2-1,2.7s-1.6,1.3-2.7,1.5v0.1c1.4,0.2,2.4,0.6,3.1,1.3s1.1,1.6,1.1,2.7
			c0,1.6-0.6,2.9-1.8,3.8s-2.9,1.4-5.1,1.4c-1.9,0-3.5-0.3-4.9-0.9v-3.1c0.7,0.3,1.4,0.6,2.2,0.8s1.6,0.3,2.4,0.3
			c1.2,0,2.1-0.2,2.6-0.6s0.9-1.1,0.9-2c0-0.8-0.3-1.4-1-1.7s-1.7-0.5-3.1-0.5h-1.3v-2.8h1.3c1.3,0,2.3-0.2,2.9-0.5s0.9-0.9,0.9-1.8
			c0-1.3-0.8-1.9-2.4-1.9c-0.6,0-1.1,0.1-1.7,0.3s-1.2,0.5-1.9,1l-1.7-2.5c1.6-1.1,3.4-1.7,5.6-1.7c1.8,0,3.2,0.4,4.2,1.1
			S36.3,24.5,36.3,25.8z"/>
	</g>
</g>
</svg>
