<?xml version="1.0" encoding="utf-8"?>
<!-- Generator: Adobe Illustrator 18.1.1, SVG Export Plug-In . SVG Version: 6.00 Build 0)  -->
<svg version="1.1" id="Layer_1" xmlns="http://www.w3.org/2000/svg" xmlns:xlink="http://www.w3.org/1999/xlink" x="0px" y="0px"
	 viewBox="0 0 900 300" enable-background="new 0 0 900 300" xml:space="preserve">
<g>
	<g>
		<path fill="#DD7251" d="M200.3,170.9l16.6,23.3l0.5,0.1c-3.6-0.7-7.2-1.9-10.7-3.5c-24.4-11.4-34.5-41.4-22.5-67
			c11.9-25.6,41.4-37.1,65.8-25.8c24.4,11.4,34.5,41.4,22.5,67c-5.1,11-13.5,19.4-23.2,24.5l0,0l9.5,14.4l-9.5,13.6
			c19.4-6.6,36.5-21.2,46.1-41.8c18.1-38.9,2.8-84.4-34.2-101.7s-81.8,0.2-99.9,39.1s-2.8,84.4,34.2,101.7
			c5.8,2.7,11.9,4.6,17.9,5.6l-16.4,32h22.7l29.6-48.5l-22.7-33.1H200.3z"/>
	</g>
	<g>
		<path fill="#DD7251" d="M340.1,122h-26.5l-7.1,54.3c0,0,1.3,31.7,26.2,34.6c24.9,2.9,50-5,52.7-28.2l7.1-60.6h-26.5l-5.7,54.3
			c-0.6,5.7-5.3,17.2-17.6,15.4c-12.3-1.8-9.7-15.4-9.7-15.4L340.1,122z"/>
	</g>
	<g>
		<polygon fill="#679F52" points="420.4,211.4 431.4,122 405.4,122 394.8,211.4 		"/>
	</g>
	<g>
		<circle fill="#679F52" cx="422.6" cy="89.8" r="13.7"/>
	</g>
	<g>
		<polygon fill="#679F52" points="546.1,148.9 574.8,122 612.3,122 562.9,164.8 600.8,211.4 568.6,211.4 541.7,177.5 538.2,211.4 
			512.1,211.4 528.5,76.1 555.1,76.1 		"/>
	</g>
	<polygon fill="#679F52" points="686.8,146.7 697.8,146.7 689.9,211.4 716.4,211.4 723.9,146.7 743.7,146.7 746.3,122 727.4,122 
		732.2,82.7 705.8,82.7 702.2,122 689.9,122 	"/>
	<path fill="#679F52" d="M656.3,123.5c-23.8-8.3-49.9,4.6-58.3,28.8c-8.4,24.2,4,50.5,27.8,58.8c21.3,7.4,44.4-2.1,55.1-21.5l0,0
		l-20.8-8.4l0,0c-4.9,7.7-13.5,12.2-22.4,10.7c-7.8-1.3-14-6.9-16.8-14.3l0,0h64.6l0,0C690.8,154.8,678.5,131.3,656.3,123.5z
		 M621.6,156.9L621.6,156.9c4.4-9.7,14.1-15.7,24.2-14c7.7,1.3,13.7,6.7,16.6,13.8l0.1,0.2H621.6z"/>
	<path fill="#679F52" d="M512.1,129l-7.1,25.4l0,0c-4.4-7.1-12.2-11.8-21.2-11.8c-13.7,0-24.8,11.1-24.8,24.8s11.1,24.8,24.8,24.8
		c6.6,0,12.7-2.6,17.1-6.9l0,0l2.5,22.4l0,0c-6,2.3-12.7,3.6-19.7,3.6c-27.5,0-49.8-20.2-49.8-45.2s22.3-45.2,49.8-45.2
		c10.3,0,19.9,2.8,27.9,7.7"/>
</g>
</svg>
