<?xml version="1.0" encoding="utf-8"?>
<!-- Generator: Adobe Illustrator 18.1.1, SVG Export Plug-In . SVG Version: 6.00 Build 0)  -->
<svg version="1.1" id="Layer_1" xmlns="http://www.w3.org/2000/svg" xmlns:xlink="http://www.w3.org/1999/xlink" x="0px" y="0px"
	 viewBox="0 0 100 100" enable-background="new 0 0 100 100" xml:space="preserve">
<path fill="#9CCBEE" d="M50,0.3c-27.6,0-50,22.4-50,50c0,27.6,22.4,50,50,50c27.6,0,50-22.4,50-50C100,22.7,77.6,0.3,50,0.3z
	 M27.6,35h44.8c2.4,0,1.2,2.2-0.1,2.9c-1.3,0.7-19.2,10.3-19.8,10.7C51.7,48.9,50.9,49,50,49c-0.9,0-1.7-0.2-2.4-0.5
	c-0.7-0.4-18.5-10-19.8-10.7C26.5,37.2,25.3,35,27.6,35z M73.8,63.1c0,1.1-1.5,2.5-2.6,2.5H28.8c-1.1,0-2.6-1.4-2.6-2.5
	c0,0,0-18.9,0-19.4c0-0.5,0-1.1,1-0.6c1.5,0.8,19.5,10.2,20.4,10.7c0.9,0.5,1.5,0.5,2.4,0.5c0.9,0,1.5-0.1,2.4-0.5
	c0.9-0.5,18.9-9.9,20.4-10.7c1-0.5,1,0.1,1,0.6C73.8,44.2,73.8,63.1,73.8,63.1z"/>
</svg>
