<?xml version="1.0" encoding="utf-8"?>
<!-- Generator: Adobe Illustrator 18.1.1, SVG Export Plug-In . SVG Version: 6.00 Build 0)  -->
<svg version="1.1" id="Layer_1" xmlns="http://www.w3.org/2000/svg" xmlns:xlink="http://www.w3.org/1999/xlink" x="0px" y="0px"
	 viewBox="0 0 100 100" enable-background="new 0 0 100 100" xml:space="preserve">
<path fill="#9CCBEE" d="M78.1,73.9V54.4c0-10.5-5.6-15.3-13-15.3c-6,0-8.7,3.3-10.2,5.6v-4.8H43.5c0.2,3.2,0,34.1,0,34.1h11.3v-19
	c0-1,0.1-2,0.4-2.8c0.8-2,2.7-4.1,5.8-4.1c4.1,0,5.7,3.1,5.7,7.7v18.2L78.1,73.9L78.1,73.9z M31.6,35.2c3.9,0,6.4-2.6,6.4-5.9
	c-0.1-3.3-2.5-5.9-6.3-5.9s-6.4,2.5-6.4,5.9C25.3,32.6,27.7,35.2,31.6,35.2L31.6,35.2z M50,100.4c-27.6,0-50-22.4-50-50
	c0-27.6,22.4-50,50-50s50,22.4,50,50C100.1,78,77.7,100.4,50,100.4z M37.3,73.9V39.9H26v34.1H37.3z"/>
</svg>
