<?xml version="1.0" encoding="utf-8"?>
<!-- Generator: Adobe Illustrator 18.1.1, SVG Export Plug-In . SVG Version: 6.00 Build 0)  -->
<svg version="1.1" id="Layer_1" xmlns="http://www.w3.org/2000/svg" xmlns:xlink="http://www.w3.org/1999/xlink" x="0px" y="0px"
	 viewBox="0 0 152.1 133.7" enable-background="new 0 0 152.1 133.7" xml:space="preserve">
<g>
	<rect x="28.7" y="12.5" fill="#FFFFFF" width="100.4" height="118.7"/>
	<rect x="28.7" y="131" fill="#CDCCCC" width="100.4" height="2.7"/>
	<rect x="43.1" y="47.8" fill="#CDCCCC" width="71.7" height="2.8"/>
	<rect x="43.1" y="59.8" fill="#CDCCCC" width="71.7" height="2.8"/>
	<rect x="43.1" y="71.8" fill="#CDCCCC" width="71.7" height="2.8"/>
	<rect x="43.1" y="83.8" fill="#CDCCCC" width="71.7" height="2.8"/>
	<rect x="43.1" y="95.8" fill="#CDCCCC" width="71.7" height="2.8"/>
	<rect x="43.1" y="35.7" fill="#CDCCCC" width="45.2" height="2.8"/>
	<rect x="43.1" y="107.9" fill="#CDCCCC" width="71.7" height="2.8"/>
	<path fill="#D65233" d="M110.2,7.6H86.5c0-4.2-3.4-7.6-7.6-7.6c-4.2,0-7.6,3.4-7.6,7.6H47.6c-2.5,0-4.5,2-4.5,4.5v0.8
		c0,2.5,0,4.5,0,4.5h71.7c0,0,0-2,0-4.5v-0.8C114.8,9.7,112.7,7.6,110.2,7.6z M78.9,11.5c-2.2,0-3.9-1.7-3.9-3.9s1.7-3.9,3.9-3.9
		c2.2,0,3.9,1.7,3.9,3.9S81.1,11.5,78.9,11.5z"/>
</g>
</svg>
