<?xml version="1.0" encoding="utf-8"?>
<!-- Generator: Adobe Illustrator 19.0.0, SVG Export Plug-In . SVG Version: 6.00 Build 0)  -->
<svg version="1.1" id="Layer_1" xmlns="http://www.w3.org/2000/svg" xmlns:xlink="http://www.w3.org/1999/xlink" x="0px" y="0px"
	 viewBox="-298 390 14 13" style="enable-background:new -298 390 14 13;" xml:space="preserve">
<path id="XMLID_2830_" d="M-288.2,390c-1.1,0-2.1,0.6-2.8,1.4c-0.7-0.8-1.7-1.4-2.9-1.4c-2.2,0-4.1,1.9-4.1,4.1
	c0,3.7,2.3,5.5,5.4,7.9l1,0.8l0.1,0.1c0,0,0.1,0,0.1,0.1c0.1,0,0.2,0.1,0.4,0.1l0,0l0,0c0.1,0,0.3,0,0.4-0.1c0,0,0.1,0,0.1-0.1
	c0.1,0,0.1,0,0.2-0.1c0.4-0.3,0.8-0.6,1.1-0.9c2.9-2.4,5.2-4.2,5.2-7.8C-284,391.9-285.9,390-288.2,390z M-290.5,400.4
	c-0.2,0.1-0.3,0.3-0.5,0.4l-0.4-0.3c-2.9-2.3-4.6-3.6-4.6-6.4c0-1.1,1-2.1,2.1-2.1c0.9,0,1.6,0.8,2,1.5l0.1,0.1
	c0,0.1,0.1,0.1,0.1,0.2c0.1,0.1,0.1,0.1,0.2,0.1l0.1,0.1l0,0c0.1,0,0.1,0,0.2,0.1c0.1,0,0.1,0,0.2,0s0.1,0,0.2,0c0.1,0,0.1,0,0.2,0
	l0,0l0.1-0.1c0.1,0,0.1-0.1,0.2-0.1c0.1-0.1,0.1-0.1,0.1-0.2l0.1-0.1c0.4-0.8,1.1-1.6,1.9-1.6c1.2,0,2.2,1,2.2,2.1
	C-286,396.7-287.7,398.1-290.5,400.4z"/>
</svg>
