<?xml version="1.0" encoding="utf-8"?>
<!-- Generator: Adobe Illustrator 19.0.0, SVG Export Plug-In . SVG Version: 6.00 Build 0)  -->
<svg version="1.1" id="Layer_1" xmlns="http://www.w3.org/2000/svg" xmlns:xlink="http://www.w3.org/1999/xlink" x="0px" y="0px"
	 viewBox="0 0 14 13.1" style="enable-background:new 0 0 14 13.1;" xml:space="preserve">
<path id="XMLID_2830_" d="M9.8,0C8.7,0,7.7,0.6,7,1.4C6.3,0.6,5.3,0,4.1,0C1.9,0,0,1.9,0,4.1c0,3.7,2.3,5.5,5.4,7.9l1,0.8
	c0,0,0.1,0.1,0.1,0.1c0,0,0.1,0,0.1,0.1c0.1,0,0.2,0.1,0.4,0.1c0,0,0,0,0,0s0,0,0,0c0.1,0,0.3,0,0.4-0.1c0,0,0.1,0,0.1-0.1
	c0.1,0,0.1,0,0.2-0.1c0.4-0.3,0.8-0.6,1.1-0.9C11.7,9.5,14,7.7,14,4.1C14,1.9,12.1,0,9.8,0z"/>
</svg>
