<?xml version="1.0" encoding="utf-8"?>
<!-- Generator: Adobe Illustrator 19.0.0, SVG Export Plug-In . SVG Version: 6.00 Build 0)  -->
<svg version="1.1" id="Layer_1" xmlns="http://www.w3.org/2000/svg" xmlns:xlink="http://www.w3.org/1999/xlink" x="0px" y="0px"
	 viewBox="0 0 14.8 13.1" style="enable-background:new 0 0 14.8 13.1;" xml:space="preserve">
<g id="XMLID_67_">
	<path id="XMLID_68_" d="M0,4.4c0.1,3.7,2.5,5.4,5.7,7.7l1,0.8c0,0,0.1,0.1,0.2,0.1c0,0,0.1,0,0.1,0.1c0.1,0-0.8-4.8-0.8-4.8l2-3.6
		L6.9,1.4C6.1,0.6,5.1,0.1,4,0.1C1.7,0.2-0.1,2.2,0,4.4z"/>
	<path id="XMLID_69_" d="M10.9,0.2c-1.1-0.1-2,0.4-2.8,1.1l0,0l1.4,3.4l-2,3.7c0,0,0.6,4.5,0.7,4.5c0.4-0.3,0.7-0.5,1.1-0.8
		c3-2.2,5.4-4,5.6-7.5C14.9,2.2,13.1,0.3,10.9,0.2z"/>
</g>
</svg>
