<?xml version="1.0" encoding="utf-8"?>
<!-- Generator: Adobe Illustrator 19.0.0, SVG Export Plug-In . SVG Version: 6.00 Build 0)  -->
<svg version="1.1" id="Layer_1" xmlns="http://www.w3.org/2000/svg" xmlns:xlink="http://www.w3.org/1999/xlink" x="0px" y="0px"
	 viewBox="0 0 17.2 12.1" style="enable-background:new 0 0 17.2 12.1;" xml:space="preserve">
<path id="XMLID_3230_" d="M17.2,11.1l-5-5.1l5-5L17.2,11.1L17.2,11.1z M0.9,12.1L6,7l1.1,1.1C7.5,8.5,8,8.8,8.6,8.8s1.1-0.3,1.5-0.7
	L11.3,7l5.1,5.1H0.9L0.9,12.1z M16.4,0L9.1,7.3C9,7.4,8.9,7.5,8.6,7.5c-0.3,0-0.4-0.1-0.5-0.2L0.9,0H16.4L16.4,0z M0,1.1l5,5l-5,5.1
	V1.1L0,1.1z"/>
</svg>
