<?xml version="1.0" encoding="utf-8"?>
<!-- Generator: Adobe Illustrator 19.0.0, SVG Export Plug-In . SVG Version: 6.00 Build 0)  -->
<svg version="1.1" id="Layer_1" xmlns="http://www.w3.org/2000/svg" xmlns:xlink="http://www.w3.org/1999/xlink" x="0px" y="0px"
	 viewBox="0 0 13.5 12.7" style="enable-background:new 0 0 13.5 12.7;" xml:space="preserve">
<path id="XMLID_2802_" d="M13.4,5.1c0.2-0.2,0.1-0.5-0.2-0.5L9.1,4.1C9,4.1,8.9,4,8.9,3.9L7,0.2c-0.1-0.2-0.4-0.2-0.5,0L4.6,3.9
	C4.6,4,4.5,4,4.4,4.1L0.2,4.7C0,4.7-0.1,5,0.1,5.1l3,2.9c0.1,0.1,0.1,0.2,0.1,0.2l-0.8,4.1c-0.1,0.2,0.2,0.4,0.4,0.3l3.8-2
	c0.1-0.1,0.2-0.1,0.3,0l3.8,2c0.2,0.1,0.5-0.1,0.4-0.3l-0.8-4.1c0-0.1,0-0.2,0.1-0.2L13.4,5.1z"/>
</svg>
