<?xml version="1.0" encoding="utf-8"?>
<!-- Generator: Adobe Illustrator 19.0.0, SVG Export Plug-In . SVG Version: 6.00 Build 0)  -->
<svg version="1.1" id="Layer_1" xmlns="http://www.w3.org/2000/svg" xmlns:xlink="http://www.w3.org/1999/xlink" x="0px" y="0px"
	 viewBox="-227 347 100 100" style="enable-background:new -227 347 100 100;" xml:space="preserve">
<style type="text/css">
	.st0{fill:#fff;}
</style>
<g>
	<path class="st0" d="M-187,402.1h12.4c-1.4,5.8-5.8,9-12.5,9c-7.9,0-14.3-6.3-14.3-14.1c0-7.8,6.4-14.1,14.3-14.1
		c3.5,0,6.8,1.2,9.4,3.5l6-6.7c-4.3-3.6-9.7-5.6-15.4-5.6c-12.9,0-23.4,10.3-23.4,23c0,12.7,10.5,23,23.4,23
		c13.2,0,22.1-9,22.1-22.3v-4.5h-22V402.1z"/>
	<polygon class="st0" points="-137.2,393.1 -145.2,393.1 -145.2,385.1 -151.1,385.1 -151.1,393.1 -159.2,393.1 -159.2,399 
		-151.1,399 -151.1,407.1 -145.2,407.1 -145.2,399 -137.2,399 	"/>
</g>
</svg>
