<?xml version="1.0" encoding="utf-8"?>
<!-- Generator: Adobe Illustrator 19.0.0, SVG Export Plug-In . SVG Version: 6.00 Build 0)  -->
<svg version="1.1" id="Layer_1" xmlns="http://www.w3.org/2000/svg" xmlns:xlink="http://www.w3.org/1999/xlink" x="0px" y="0px"
	 viewBox="-288.5 346.5 100 100" style="enable-background:new -288.5 346.5 100 100;" xml:space="preserve">
<style type="text/css">
	.st0{fill:#fff;}
</style>
<path class="st0" d="M-258.9,423.9c0.1,0,0.2,0,0.3,0.1h43.2v0c0.3,0,0.6-0.1,0.8-0.1c2.2-0.5,4-2.3,4.4-4.5c0-0.2,0.1-0.5,0.1-0.7
	v-43.2c0-0.2-0.1-0.5-0.1-0.7c-0.5-2.4-2.5-4.3-4.9-4.6c-0.1,0-0.2,0-0.3-0.1h-43.3c-0.3,0-0.5,0.1-0.8,0.1
	c-2.4,0.5-4.2,2.5-4.5,4.9c0,0.1,0,0.2-0.1,0.3v43.3c0,0.3,0.1,0.6,0.2,0.8C-263.3,421.8-261.3,423.6-258.9,423.9z M-223.1,374.4
	c1.7,0,3.4,0,5.1,0c1.2,0,2.2,1,2.2,2.2c0,1.7,0,3.4,0,5.1c0,1.1-0.9,2.1-2.1,2.2c-0.9,0-1.8,0-2.7,0v0c-0.8,0-1.6,0-2.5,0
	c-1,0-1.8-0.6-2.1-1.5c-0.1-0.2-0.1-0.5-0.1-0.8c0-1.7,0-3.4,0-5.1C-225.3,375.4-224.4,374.4-223.1,374.4z M-237,386.1
	c6.1,0,11.1,5.1,10.9,11.2c-0.1,5.9-5.1,10.8-11.2,10.7c-5.9-0.1-10.8-5-10.7-11.1C-247.9,390.9-243,386.1-237,386.1z M-258.2,392
	v-0.1c1.7,0,3.4,0,5.1,0c-1.3,4.6-1,9,1.3,13.2c1.5,2.8,3.7,5,6.5,6.6c5.5,3.1,12.4,2.8,17.6-0.8c2-1.4,3.7-3.1,4.9-5.2
	c1.3-2.1,2-4.3,2.3-6.7c0.3-2.4,0.1-4.8-0.7-7.1h5.2v0.2c0,8,0,16,0,23.9c0,1.2-1,2.1-2.2,2.1c-12.7,0-25.3,0-38,0
	c-1.2,0-2.1-1-2.1-2.1C-258.2,408-258.2,400-258.2,392z"/>
</svg>
