<?xml version="1.0" encoding="utf-8"?>
<!-- Generator: Adobe Illustrator 19.0.0, SVG Export Plug-In . SVG Version: 6.00 Build 0)  -->
<svg version="1.1" id="Layer_1" xmlns="http://www.w3.org/2000/svg" xmlns:xlink="http://www.w3.org/1999/xlink" x="0px" y="0px"
	 viewBox="-288.5 346.5 100 100" style="enable-background:new -288.5 346.5 100 100;" xml:space="preserve">
<style type="text/css">
	.st0{fill:#fff;}
</style>
<rect x="-264.3" y="387" class="st0" width="11.6" height="34.8"/>
<path class="st0" d="M-234.8,421.8v-19.5c0-1,0.1-2.1,0.4-2.8c0.8-2.1,2.7-4.2,5.9-4.2c4.2,0,5.9,3.2,5.9,7.9v18.6h11.6v-20
	c0-10.7-5.7-15.7-13.3-15.7c-6.1,0-8.9,3.4-10.4,5.8V387h-11.6c0.2,3.3,0,34.8,0,34.8H-234.8z"/>
<path class="st0" d="M-258.6,382.2L-258.6,382.2c4.1,0,6.6-2.7,6.6-6c-0.1-3.4-2.5-6-6.5-6c-4,0-6.5,2.6-6.5,6
	C-265,379.6-262.5,382.2-258.6,382.2z"/>
</svg>
