<?xml version="1.0" encoding="utf-8"?>
<!-- Generator: Adobe Illustrator 19.0.0, SVG Export Plug-In . SVG Version: 6.00 Build 0)  -->
<svg version="1.1" id="Layer_1" xmlns="http://www.w3.org/2000/svg" xmlns:xlink="http://www.w3.org/1999/xlink" x="0px" y="0px"
	 viewBox="-288.5 346.5 100 100" style="enable-background:new -288.5 346.5 100 100;" xml:space="preserve">
<style type="text/css">
	.st0{fill:#fff;}
</style>
<path class="st0" d="M-265.1,397.6c0,14.8,11.8,26.7,26.5,26.7c1.7,0,3.3-0.2,4.8-0.4c2.4,1.5,5.3,2.4,8.4,2.4
	c8.7,0,15.8-7.2,15.8-16c0-3.3-1-6.5-2.7-9c0.2-1.2,0.2-2.4,0.2-3.6c0-14.8-11.9-26.7-26.5-26.7c-1.5,0-2.9,0.1-4.3,0.4
	c-2.5-1.6-5.4-2.6-8.6-2.6c-8.7,0-15.8,7.2-15.8,16c0,3.2,0.9,6.2,2.5,8.7C-265,394.8-265.1,396.2-265.1,397.6z M-239.6,401.9
	c-6.7-1-15.1-4.7-14.4-11.9c0.7-7.3,6-11,11.7-11.5c7.2-0.7,11.9,1.1,15.6,4.4c4.3,3.7,2,7.9-0.8,8.3c-2.7,0.3-5.8-6.2-11.8-6.2
	c-6.2-0.1-10.4,6.6-2.7,8.5c7.7,1.9,15.9,2.7,18.8,9.8c3,7.1-4.6,14.7-13,15.2c-8.4,0.4-12.4-1.5-16-4.9c-4-3.9-2.4-8.3,0.9-8.5
	c3.3-0.2,5.3,3.8,7,4.9c1.8,1.1,8.4,3.7,11.9-0.4C-228.5,404.9-234.9,402.6-239.6,401.9z"/>
</svg>
