<?xml version="1.0" encoding="utf-8"?>
<!-- Generator: Adobe Illustrator 19.0.0, SVG Export Plug-In . SVG Version: 6.00 Build 0)  -->
<svg version="1.1" id="Layer_1" xmlns="http://www.w3.org/2000/svg" xmlns:xlink="http://www.w3.org/1999/xlink" x="0px" y="0px"
	 viewBox="-288.5 346.5 100 100" style="enable-background:new -288.5 346.5 100 100;" xml:space="preserve">
<style type="text/css">
	.st0{fill:#fff;}
</style>
<path class="st0" d="M-260.8,414.4c-1.8,0-3.3,0.2-3.3,0.3c0,0.4,5,2.7,7.9,3.6c8.7,2.7,19,1.5,26.7-3c5.5-3.3,11-9.7,13.6-16
	c1.4-3.3,2.8-9.4,2.8-12.3c0-1.9,0.1-2.1,2.4-4.4c1.3-1.3,2.6-2.8,2.8-3.2c0.4-0.8,0.4-0.8-1.7-0.1c-3.5,1.2-3.9,1.1-2.2-0.8
	c1.3-1.3,2.8-3.7,2.8-4.4c0-0.1-0.6,0.1-1.3,0.5c-0.7,0.4-2.4,1-3.6,1.4l-2.2,0.7l-2-1.4c-1.1-0.7-2.6-1.6-3.5-1.8
	c-2.1-0.6-5.3-0.5-7.1,0.2c-5.1,1.9-8.3,6.6-7.9,11.9l0.1,2l-2-0.2c-7.4-0.9-13.9-4.2-19.4-9.5l-2.7-2.7l-0.7,2
	c-1.5,4.4-0.5,9.1,2.5,12.2c1.6,1.7,1.3,2-1.5,0.9c-1-0.3-1.8-0.6-1.9-0.5c-0.3,0.3,0.7,4,1.5,5.5c1.1,2.1,3.2,4.1,5.6,5.3l2,0.9
	l-2.4,0c-2.3,0-2.4,0-2.1,0.9c0.8,2.7,4,5.5,7.6,6.8l2.5,0.9l-2.2,1.3C-253.2,413.3-257,414.4-260.8,414.4z"/>
</svg>
