<?xml version="1.0" encoding="utf-8"?>
<!-- Generator: Adobe Illustrator 16.0.0, SVG Export Plug-In . SVG Version: 6.00 Build 0)  -->
<!DOCTYPE svg PUBLIC "-//W3C//DTD SVG 1.1//EN" "http://www.w3.org/Graphics/SVG/1.1/DTD/svg11.dtd">
<svg version="1.1" id="Layer_1" xmlns="http://www.w3.org/2000/svg" xmlns:xlink="http://www.w3.org/1999/xlink" x="0px" y="0px"
	 width="100px" height="100px" viewBox="0 0 100 100" enable-background="new 0 0 100 100" xml:space="preserve">
<path d="M23.244,49.916c-12.613,0-22.819,7.941-22.819,17.753l38.807,13.453v4.762L7.936,90.986l-0.681,6.462h3.401v-2.72
	l9.526-0.682v3.401h3.741v-2.72l15.308-1.361l6.463,0.341l14.969,1.021v2.72h4.08v-2.72l10.205,0.679v3.063h4.082v-6.463
	l-32.655-6.123v-3.063l12.245,2.041l4.763-5.783v-4.762h2.722l9.184-14.967l2.042,1.7l16.328-23.131l1.699-13.947l-2.72-1.701
	l7.144-19.729c0,0-7.824-6.463-14.966,10.886c-7.146,17.348-3.403,20.409,1.018,23.131c4.424,2.721,3.402,1.021,3.402,1.021
	l-4.42,5.443c0,0-3.063-5.783-8.506-1.361c-5.443,4.423-9.524,10.545-9.524,10.545l-0.681-4.762c0,0-38.78-8.845-40.141-7.824
	C24.604,40.642,22.995,41.507,23.244,49.916z"/>
</svg>
